<svg width="32" height="32" viewBox="0 0 32 32" fill="none" xmlns="http://www.w3.org/2000/svg">
<path d="M6.70711 5.29289C6.31658 4.90237 5.68342 4.90237 5.29289 5.29289C4.90237 5.68342 4.90237 6.31658 5.29289 6.70711L14.4854 15.8996L5.29304 25.0919C4.90252 25.4824 4.90252 26.1156 5.29304 26.5061C5.68357 26.8966 6.31673 26.8966 6.70726 26.5061L15.8996 17.3138L25.0919 26.5061C25.4824 26.8966 26.1156 26.8966 26.5061 26.5061C26.8966 26.1156 26.8966 25.4824 26.5061 25.0919L17.3138 15.8996L26.5062 6.70711C26.8968 6.31659 26.8968 5.68343 26.5062 5.2929C26.1157 4.90238 25.4826 4.90238 25.092 5.2929L15.8996 14.4854L6.70711 5.29289Z" fill="#212A2F"/>
</svg>
