<svg width="24" height="24" viewBox="0 0 24 24" xmlns="http://www.w3.org/2000/svg">
<path d="M12 0C5.38531 0 0 5.38531 0 12C0 18.6147 5.38531 24 12 24C18.6147 24 24 18.6147 24 12C24 5.38531 18.6147 0 12 0ZM12.9943 19.6678C12.7004 19.9616 12.2914 20.0767 11.8824 20.0767C11.4735 20.0767 11.062 19.9592 10.7706 19.6678C10.4767 19.3739 10.3029 19.0237 10.3029 18.4971C10.3029 18.0294 10.4792 17.6767 10.7706 17.3853C11.0645 17.0914 11.4735 16.9176 11.8824 16.9176C12.3502 16.9176 12.7029 17.0939 12.9943 17.3853C13.2882 17.6792 13.462 18.0882 13.462 18.4971C13.4645 19.0237 13.2882 19.3763 12.9943 19.6678ZM16.9176 9.89388C16.6824 10.3616 16.391 10.7143 16.0384 11.0645C15.6882 11.4147 15.1029 11.9437 14.2237 12.7029C13.9886 12.938 13.8147 13.1118 13.6384 13.2882C13.5208 13.4645 13.4033 13.582 13.3445 13.7559C13.2857 13.8735 13.2269 14.0498 13.1682 14.1649C13.1094 14.2824 13.0506 14.5151 12.9918 14.8678C12.8743 15.5706 12.4653 15.9796 11.7624 15.9796C11.4122 15.9796 11.1184 15.862 10.8269 15.6294C10.5918 15.3943 10.4767 15.0441 10.4767 14.5763C10.4767 13.991 10.5943 13.4645 10.7706 13.0555C10.9469 12.6465 11.1796 12.2351 11.4735 11.9437C11.7673 11.5935 12.1763 11.2408 12.7029 10.7731C13.1706 10.3641 13.4645 10.0702 13.6971 9.89388C13.8735 9.71755 14.0473 9.4849 14.2237 9.2498C14.3412 9.01469 14.4588 8.72327 14.4588 8.42939C14.4588 7.84408 14.2237 7.37633 13.8147 7.02367C13.4057 6.61469 12.8792 6.43837 12.1763 6.43837C11.4147 6.43837 10.8294 6.61469 10.4792 7.02367C10.129 7.43265 9.77633 7.95918 9.54367 8.72082C9.30857 9.54122 8.84082 9.89143 8.19674 9.89143C7.78776 9.89143 7.49388 9.77388 7.20245 9.48245C6.90857 9.18857 6.79347 8.89714 6.79347 8.60326C6.79347 7.95918 7.02857 7.25633 7.43755 6.55347C7.84653 5.85061 8.49061 5.32408 9.31102 4.85633C10.1314 4.38857 11.0669 4.15347 12.1788 4.15347C13.1731 4.15347 14.111 4.3298 14.8727 4.73878C15.6343 5.08898 16.2784 5.61796 16.6873 6.25959C17.0963 6.90367 17.3314 7.60653 17.3314 8.36571C17.3265 8.95592 17.1502 9.48245 16.9176 9.89388Z"/>
</svg>
