<svg width="21" height="21" viewBox="0 0 21 21" xmlns="http://www.w3.org/2000/svg">
<path fill-rule="evenodd" clip-rule="evenodd" d="M15.8728 13.0255L15.8728 13.0255C15.7814 12.9631 15.6901 12.9007 15.599 12.838C14.5484 12.1146 13.5875 12.0584 12.8035 13.2222C12.3633 13.8757 11.747 13.9043 11.1026 13.6176C9.32614 12.8279 7.95436 11.6111 7.15082 9.84095C6.79536 9.05777 6.80005 8.35561 7.6317 7.80169C8.07202 7.50875 8.51563 7.16211 8.48015 6.52202C8.43384 5.68739 6.36683 2.89819 5.55057 2.6038C5.2128 2.48197 4.87644 2.4899 4.5328 2.60312C2.6188 3.23416 1.82602 4.77738 2.58526 6.60465C4.85028 12.0562 8.83635 15.8514 14.3234 18.1677C14.5515 18.2639 14.798 18.318 14.9831 18.3586C15.0518 18.3737 15.1121 18.3869 15.1597 18.3997C16.409 18.412 17.8724 17.2321 18.295 16.061C18.6527 15.0708 18.0316 14.6055 17.4141 14.1428C17.3291 14.0791 17.2441 14.0154 17.1618 13.9504C16.7475 13.6235 16.3098 13.3243 15.8728 13.0255ZM11.0094 3.16271C15.0208 3.76747 16.8708 5.63748 17.3816 9.59849C17.3919 9.67817 17.3934 9.76662 17.3949 9.85633C17.4003 10.1785 17.4059 10.5171 17.8224 10.525C18.2875 10.5338 18.2702 10.1563 18.2547 9.81826V9.8182C18.2517 9.75181 18.2487 9.68694 18.2495 9.62682C18.2965 5.89629 14.9786 2.43793 11.1254 2.31042C11.0571 2.32006 10.9715 2.31431 10.8802 2.30817C10.583 2.28818 10.2243 2.26405 10.1956 2.75269C10.1756 3.09802 10.4972 3.12096 10.7968 3.14232C10.8709 3.1476 10.9436 3.15278 11.0094 3.16271ZM11.5878 5.01575C11.5379 5.00975 11.4857 5.00112 11.4327 4.99235C11.1337 4.94292 10.8088 4.88922 10.7432 5.27898C10.6778 5.66908 10.9846 5.71114 11.2697 5.75022C11.3366 5.75939 11.4023 5.7684 11.4618 5.7817C13.5853 6.25631 14.3247 7.02923 14.6744 9.13571C14.6845 9.19671 14.6887 9.26445 14.6929 9.33323C14.7097 9.61071 14.7277 9.90506 15.1459 9.84159C15.4382 9.79706 15.4298 9.55213 15.4222 9.33183V9.33181C15.4198 9.26065 15.4174 9.19206 15.4253 9.13363C15.4425 7.11126 13.7095 5.27053 11.5878 5.01575ZM11.2642 6.93474C11.3454 6.69882 11.562 6.67493 11.7828 6.66947C12.7241 6.64611 13.8272 7.77416 13.8116 8.75012C13.8213 9.0169 13.7928 9.29782 13.4772 9.33548C13.2494 9.36236 13.0998 9.17132 13.0763 8.93554C12.9892 8.06684 12.5308 7.55317 11.6597 7.41332C11.3987 7.37141 11.1424 7.28734 11.2642 6.93474Z"/>
</svg>
