<svg width="23" height="23" viewBox="0 0 23 23" xmlns="http://www.w3.org/2000/svg">
<path fill-rule="evenodd" clip-rule="evenodd" d="M18.0191 4.97381C16.2894 3.25038 13.9891 2.30086 11.5384 2.2998C6.48873 2.2998 2.37885 6.38977 2.37682 11.4169C2.37621 13.0238 2.79798 14.5923 3.59976 15.9751L2.30005 20.6998L7.1567 19.4319C8.49484 20.1583 10.0014 20.5412 11.5347 20.5417H11.5385C16.5877 20.5417 20.6979 16.4512 20.7 11.424C20.7009 8.9879 19.7488 6.69716 18.0191 4.97381ZM15.7153 13.326C15.4864 13.2121 14.361 12.6609 14.1512 12.5849C13.9414 12.509 13.7887 12.4709 13.6361 12.699C13.4835 12.9271 13.0447 13.4402 12.9112 13.5923C12.7777 13.7442 12.6441 13.7633 12.4153 13.6492C12.1863 13.5353 11.4488 13.2946 10.5744 12.5184C9.89389 11.9144 9.43448 11.1684 9.30093 10.9402C9.16739 10.7121 9.28665 10.5889 9.40133 10.4753C9.50429 10.3732 9.63025 10.2091 9.74475 10.0761C9.85925 9.94313 9.89733 9.84803 9.97366 9.69601C10.05 9.54398 10.0118 9.4109 9.95453 9.29695C9.89733 9.18282 9.4395 8.06144 9.24875 7.60528C9.06294 7.16113 8.87422 7.22122 8.73372 7.2142C8.60035 7.20762 8.4476 7.20613 8.29493 7.20613C8.14235 7.20613 7.89439 7.26315 7.68452 7.49124C7.47473 7.71932 6.88336 8.27049 6.88336 9.39187C6.88336 10.5132 7.70356 11.5965 7.81806 11.7486C7.93247 11.9006 9.43227 14.2017 11.7286 15.1886C12.2746 15.4233 12.7011 15.5634 13.0336 15.6685C13.582 15.842 14.081 15.8174 14.4754 15.7588C14.9152 15.6934 15.8297 15.2076 16.0205 14.6755C16.2112 14.1433 16.2112 13.6871 16.154 13.5921C16.0968 13.4972 15.9442 13.4402 15.7153 13.326Z"/>
</svg>
