<svg width="23" height="23" viewBox="0 0 23 23" xmlns="http://www.w3.org/2000/svg">
<path fill-rule="evenodd" clip-rule="evenodd" d="M2.59015 10.9977C7.7341 8.6609 11.1585 7.10814 12.8781 6.35482C17.7722 4.21784 18.801 3.84887 19.4623 3.8335C19.6093 3.8335 19.9326 3.86424 20.1531 4.04873C20.3294 4.20247 20.3735 4.40233 20.4029 4.55607C20.4323 4.70981 20.4617 5.03266 20.4323 5.27864C20.1678 8.19968 19.0214 15.287 18.4335 18.5463C18.1837 19.93 17.6987 20.3912 17.2284 20.4373C16.1996 20.5295 15.4206 19.7301 14.4359 19.0537C12.8781 17.9929 12.0109 17.3318 10.4971 16.2864C8.7482 15.0872 9.87987 14.4261 10.8793 13.3499C11.1438 13.0732 15.6558 8.76852 15.744 8.38417C15.7587 8.33805 15.7587 8.15356 15.6558 8.06132C15.5529 7.96907 15.4059 7.99982 15.2884 8.03057C15.1267 8.06132 12.6576 9.78319 7.85168 13.1808C7.14622 13.6882 6.51425 13.9341 5.94107 13.9188C5.3091 13.9034 4.10394 13.5498 3.19273 13.2423C2.09045 12.8733 1.20863 12.6735 1.28211 12.0278C1.32621 11.6896 1.76712 11.3513 2.59015 10.9977Z"/>
</svg>
