<svg width="18" height="18" viewBox="0 0 18 18" xmlns="http://www.w3.org/2000/svg">
<path fill-rule="evenodd" clip-rule="evenodd" d="M14.9232 12.131C14.563 11.8467 14.1824 11.5865 13.8024 11.3267C13.7229 11.2724 13.6435 11.2181 13.5643 11.1637C12.6508 10.5346 11.8152 10.4857 11.1335 11.4978C10.7507 12.066 10.2148 12.0908 9.6544 11.8416C8.10965 11.1549 6.91679 10.0968 6.21806 8.55752C5.90897 7.87649 5.91304 7.26591 6.63622 6.78424C7.01911 6.52951 7.40485 6.2281 7.37401 5.67149C7.33374 4.94573 5.53633 2.52034 4.82654 2.26435C4.53283 2.1584 4.24034 2.1653 3.94152 2.26375C2.27718 2.81248 1.5878 4.15442 2.24801 5.74335C4.2176 10.4838 7.68374 13.784 12.4551 15.7982C12.6534 15.8818 12.8678 15.9289 13.0287 15.9642C13.0885 15.9773 13.1409 15.9888 13.1823 15.9999C14.2686 16.0106 15.5412 14.9846 15.9087 13.9663C16.2197 13.1052 15.6796 12.7006 15.1427 12.2983C15.0687 12.2429 14.9948 12.1875 14.9232 12.131ZM9.57336 2.75036C13.0615 3.27623 14.6702 4.90233 15.1144 8.34668C15.1234 8.41597 15.1247 8.49288 15.126 8.5709C15.1306 8.85107 15.1356 9.14548 15.4977 9.15238C15.9021 9.15996 15.8871 8.83172 15.8736 8.53779L15.8736 8.53776C15.871 8.48002 15.8684 8.4236 15.8691 8.37132C15.91 5.12738 13.0249 2.12011 9.67421 2.00923C9.61479 2.01762 9.54043 2.01261 9.46101 2.00727C9.2026 1.98989 8.89067 1.96891 8.86571 2.39381C8.84828 2.6941 9.12797 2.71405 9.3885 2.73262C9.45288 2.73721 9.51609 2.74172 9.57336 2.75036ZM10.0763 4.3617C10.033 4.35648 9.98755 4.34897 9.94143 4.34135C9.68141 4.29836 9.39892 4.25167 9.34184 4.59058C9.28501 4.92981 9.55179 4.96638 9.79971 5.00036C9.85789 5.00834 9.91502 5.01617 9.9667 5.02774C11.8133 5.44044 12.4563 6.11254 12.7603 7.94426C12.7691 7.99731 12.7727 8.05621 12.7764 8.11602C12.791 8.35731 12.8066 8.61327 13.1703 8.55807C13.4245 8.51935 13.4172 8.30637 13.4106 8.11481V8.11479C13.4085 8.05291 13.4064 7.99327 13.4133 7.94246C13.4282 6.18387 11.9213 4.58324 10.0763 4.3617ZM9.79494 6.03038C9.8655 5.82523 10.0539 5.80446 10.2459 5.79971C11.0644 5.77939 12.0236 6.76031 12.0101 7.60897C12.0185 7.84095 11.9937 8.08523 11.7192 8.11798C11.5212 8.14135 11.3911 7.97523 11.3706 7.77021C11.295 7.01481 10.8963 6.56814 10.1388 6.44654C9.91189 6.41009 9.68897 6.33699 9.79494 6.03038Z"/>
</svg>
