<svg width="211" height="48" viewBox="0 0 211 48" fill="none" xmlns="http://www.w3.org/2000/svg">
<g clip-path="url(#clip0_137_1007)">
<path d="M48.3687 6.76404H58.0988C63.0255 6.76404 66.351 10.7829 66.351 14.6801C66.351 18.699 63.0255 22.7179 58.0988 22.7179H52.0637V29.1725H48.3687V6.76404ZM57.7293 19.3078C60.9317 19.3078 62.6561 16.8721 62.6561 14.6801C62.6561 12.3661 60.9317 10.0522 57.7293 10.0522H52.0637V19.3078H57.7293Z" fill="#323E48"/>
<path d="M67.4594 21.0125C67.4594 16.2629 70.7848 12.4875 75.9579 12.4875C81.2541 12.4875 83.8406 16.8717 83.8406 21.256V22.1085H71.1544C71.6471 24.9096 74.1104 26.4928 77.4358 26.4928C79.5297 26.4928 81.2541 25.8838 82.732 25.0313V28.076C81.3772 29.0502 79.1602 29.6592 76.6969 29.6592C71.5238 29.6592 67.4594 26.2491 67.4594 21.0125ZM80.1456 19.3075C80.1456 17.6024 78.7908 15.4103 75.8346 15.4103C73.0019 15.4103 71.4007 17.3589 71.2775 19.3075H80.1456Z" fill="#323E48"/>
<path d="M87.0432 12.8531H90.7382V19.1859H99.1135V12.8531H102.809V29.1723H99.1135V22.3523H90.7382V29.1723H87.0432V12.8531Z" fill="#323E48"/>
<path d="M105.888 21.0125C105.888 16.2629 109.213 12.4875 114.386 12.4875C119.683 12.4875 122.269 16.8717 122.269 21.256V22.1085H109.583C110.075 24.9096 112.539 26.4928 115.864 26.4928C117.958 26.4928 119.683 25.8838 121.161 25.0313V28.076C119.806 29.0502 117.589 29.6592 115.125 29.6592C109.952 29.6592 105.888 26.2491 105.888 21.0125ZM118.574 19.3075C118.574 17.6024 117.219 15.4103 114.263 15.4103C111.43 15.4103 109.829 17.3589 109.706 19.3075H118.574Z" fill="#323E48"/>
<path d="M124.363 21.0125C124.363 15.8975 128.427 12.4875 133.354 12.4875C135.325 12.4875 136.802 12.8528 138.281 13.5836V16.6281C136.802 15.8975 135.448 15.5321 133.846 15.5321C130.644 15.5321 127.934 17.7243 127.934 21.0125C127.934 24.3006 130.521 26.4928 133.846 26.4928C135.694 26.4928 137.172 26.1273 138.527 25.2749V28.3195C136.926 29.172 135.325 29.6592 133.231 29.6592C128.427 29.6592 124.363 26.1273 124.363 21.0125Z" fill="#323E48"/>
<path d="M140.375 21.0125C140.375 15.8975 144.439 12.4875 149.366 12.4875C151.337 12.4875 152.814 12.8528 154.293 13.5836V16.6281C152.814 15.8975 151.46 15.5321 149.858 15.5321C146.656 15.5321 143.946 17.7243 143.946 21.0125C143.946 24.3006 146.533 26.4928 149.858 26.4928C151.706 26.4928 153.184 26.1273 154.539 25.2749V28.3195C152.938 29.172 151.337 29.6592 149.243 29.6592C144.562 29.6592 140.375 26.1273 140.375 21.0125Z" fill="#323E48"/>
<path d="M174.738 26.1273V28.8067C174.246 29.172 173.383 29.2937 172.645 29.2937C171.042 29.2937 169.689 28.563 169.196 26.9798C167.963 28.3195 165.993 29.5374 163.161 29.5374C159.712 29.5374 157.002 27.5888 157.002 24.0571C157.002 20.4035 159.712 19.3075 163.284 19.3075C165.747 19.3075 168.949 19.3075 168.949 19.3075V19.0638C168.949 16.2629 166.61 15.5321 164.146 15.5321C162.176 15.5321 160.204 16.2629 158.973 16.9936V13.8271C160.204 13.2182 162.051 12.4875 165.007 12.4875C169.442 12.4875 172.645 14.5578 172.645 18.6985V24.7878C172.645 25.7621 173.26 26.371 173.999 26.371C173.999 26.371 174.368 26.371 174.738 26.1273ZM168.703 22.1085C168.703 22.1085 166.117 22.1085 164.392 22.1085C162.051 22.1085 160.451 22.5957 160.451 24.1789C160.451 26.0056 162.051 26.6145 164.022 26.6145C165.993 26.6145 167.841 25.6403 168.703 24.6659V22.1085Z" fill="#323E48"/>
<path d="M177.325 12.8531H181.019V19.1859H189.395V12.8531H193.089V29.1723H189.395V22.3523H181.019V29.1723H177.325V12.8531Z" fill="#323E48"/>
<path d="M196.17 21.0125C196.17 15.8975 200.234 12.4875 205.161 12.4875C207.132 12.4875 208.61 12.8528 210.088 13.5836V16.6281C208.61 15.8975 207.254 15.5321 205.654 15.5321C202.45 15.5321 199.741 17.7243 199.741 21.0125C199.741 24.3006 202.328 26.4928 205.654 26.4928C207.5 26.4928 208.978 26.1273 210.333 25.2749V28.3195C208.733 29.172 207.132 29.6592 205.037 29.6592C200.234 29.6592 196.17 26.1273 196.17 21.0125Z" fill="#323E48"/>
<path d="M48.3687 37.9423H50.0929V41.1087L53.0489 37.9423H55.1428L51.6941 41.5957L55.7587 45.98H53.6649L50.2162 42.3264V45.98H48.3687V37.9423Z" fill="#323E48"/>
<path d="M57.9756 37.9423H61.5475C63.2718 37.9423 64.3804 38.9165 64.3804 40.3779C64.3804 41.8394 63.2718 42.8136 61.5475 42.8136H59.7V45.98H57.9756V37.9423ZM61.4244 41.3522C62.1633 41.3522 62.656 40.9869 62.656 40.3779C62.656 39.769 62.1633 39.4037 61.4244 39.4037H59.7V41.3522H61.4244Z" fill="#323E48"/>
<path d="M66.8438 37.9423H72.7557V39.4037H68.4449V40.9869H71.8936V42.4482H68.4449V44.5186H73.0021V45.98H66.8438V37.9423Z" fill="#323E48"/>
<path d="M75.2189 44.5187H75.958C76.697 43.4226 77.0664 41.9611 77.0664 39.2819V38.064H82.7322V44.6405H83.8407V47.8069H82.2395V46.2237H76.697V47.8069H75.0958V44.5187H75.2189ZM81.1311 44.5187V39.4037H78.7909C78.7909 41.1087 78.6676 42.8136 77.9287 44.5187H81.1311Z" fill="#323E48"/>
<path d="M86.4271 37.9423H88.1515V43.1789L92.0929 37.9423H93.5708V45.98H91.9697V40.7432L87.7821 45.98H86.4271V37.9423Z" fill="#323E48"/>
<path d="M102.686 37.9423V39.4037H100.099V45.98H98.3746V39.4037H95.7882V37.9423H102.686Z" fill="#323E48"/>
<path d="M5.62956 37.9416H0.333374V15.4115C0.333374 7.73906 6.73807 1.40625 14.4976 1.40625H31.9873V15.2897C31.9873 23.084 25.5826 29.2949 17.8231 29.2949H8.95507L10.9257 24.0582H17.6999C22.6267 24.0582 26.568 20.1611 26.568 15.2897V6.64299H14.3744C9.44775 6.64299 5.5064 10.5401 5.5064 15.4115V37.9416H5.62956Z" fill="#DF307C"/>
</g>
<defs>
<clipPath id="clip0_137_1007">
<rect width="210" height="48" fill="white" transform="translate(0.333374)"/>
</clipPath>
</defs>
</svg>
