<svg width="48" height="48" viewBox="0 0 48 48" fill="none" xmlns="http://www.w3.org/2000/svg">
<path d="M42.2207 20.8867V31.9683L20.8154 40.3544V29.2728L42.2207 20.8867Z" fill="#E3E3E3"/>
<path d="M4.71777 25.3237V36.4045L20.8151 40.3541V29.2725L4.71777 25.3237Z" fill="#C9C9C9"/>
<path d="M12.7669 17.7319L4.71777 25.3237L20.8151 29.2725L12.7669 17.7319Z" fill="#C9C9C9"/>
<path d="M32.9595 9.80322L26.123 16.9369L42.2204 20.8865L32.9595 9.80322Z" fill="#C9C9C9"/>
<path d="M35.5875 8.4458L11.3945 17.9057L20.6978 31.2458L44.8908 21.7859L35.5875 8.4458Z" fill="url(#paint0_linear_118_868)"/>
<path d="M11.3939 17.9058L2.08984 26.6806L4.71755 25.6754L11.8656 18.5815L11.3939 17.9058Z" fill="url(#paint1_linear_118_868)"/>
<path d="M35.5867 8.4458L32.5745 9.65761L29.5598 10.8635L26.5451 12.0694L23.527 13.2668L17.4891 15.6608L14.4702 16.8565L11.4479 18.0437L11.5156 17.821L20.8358 31.1492L20.6351 31.0883L32.7379 26.3757L38.791 24.0232L44.8501 21.6851L44.8001 21.8485L42.4891 18.5036L40.1849 15.1535L37.8833 11.8018L35.5867 8.4458ZM35.5867 8.4458L37.9425 11.7603L40.2925 15.079L42.639 18.3994L44.9797 21.724C45.0144 21.7732 45.0025 21.8409 44.9534 21.8748C44.9466 21.8799 44.939 21.8841 44.9314 21.8866L44.9297 21.8875L38.8918 24.2789L32.848 26.656L20.7587 31.4033C20.6842 31.4321 20.6021 31.405 20.558 31.3423L11.2717 17.9904C11.2251 17.9235 11.2412 17.8312 11.3081 17.7838C11.3175 17.777 11.3293 17.7711 11.3395 17.7668L14.3652 16.5889L17.3943 15.4194L23.4533 13.083L26.4833 11.9161L29.5166 10.7568L32.5499 9.59748L35.5867 8.4458Z" fill="#754C24"/>
<path d="M11.7267 18.6787L11.2626 17.9979L11.5048 18.0233L2.11011 26.7016L2.07962 26.6533L4.71749 25.6744L2.1008 26.7075C2.08555 26.7134 2.06946 26.7058 2.06353 26.6914C2.0593 26.6804 2.06184 26.6677 2.07031 26.6601L2.07116 26.6592L11.2829 17.7887C11.3464 17.7278 11.4472 17.7295 11.5082 17.793C11.5133 17.798 11.5184 17.804 11.5226 17.8099L11.5251 17.8133L12.0036 18.4848C12.0578 18.561 12.04 18.6669 11.9638 18.7211C11.8876 18.7753 11.7817 18.7575 11.7275 18.6813C11.7275 18.6804 11.7267 18.6796 11.7267 18.6787Z" fill="#754C24"/>
<path d="M29.6593 20.9951L28.6592 19.978V20.7275L29.6593 20.9951Z" fill="#774A3C"/>
<path d="M24.3497 27.6525L20.9971 22.4521L24.3497 21.5977V27.6525Z" fill="#C9C9C9"/>
<path d="M20.4665 15.9766L26.6687 17.4517L23.4829 23.1458L20.3691 22.3134L20.4665 15.9766Z" fill="url(#paint2_linear_118_868)"/>
<path d="M24.3496 27.6525L28.8539 26.0376L28.8183 19.7127L26.6691 17.4517L24.3496 21.5977V27.6525Z" fill="#E3E3E3"/>
<path d="M23.4824 23.1457L26.6682 17.4517L30.0513 20.8898C29.8878 21.0507 29.6219 21.0456 29.4568 20.8779L26.7664 18.1435L24.054 22.9933C23.9414 23.1948 23.6857 23.2626 23.4824 23.1457Z" fill="#BC6839"/>
<path d="M20.4667 15.9766L21.2483 16.1332L22.0283 16.2967C22.5482 16.4068 23.069 16.5126 23.5881 16.6261L25.1454 16.9665L26.7011 17.3137C26.7773 17.3306 26.8247 17.406 26.8078 17.4814C26.8052 17.4941 26.8001 17.5068 26.7942 17.5178L26.7925 17.5212L26.0084 18.9515L25.6154 19.6662L25.2191 20.3792L24.4265 21.8053L23.6262 23.2262L23.6254 23.2271C23.5881 23.294 23.5102 23.3245 23.4391 23.305L22.6609 23.095L21.8835 22.8807L20.3295 22.4506L20.3262 22.4497C20.2626 22.4319 20.222 22.3735 20.2237 22.3108L20.2703 20.7273L20.3245 19.1437C20.3422 18.6161 20.3685 18.0877 20.3897 17.5601L20.4235 16.7683L20.4667 15.9766ZM20.4667 15.9766L20.4828 16.7692L20.4921 17.5618C20.4972 18.0902 20.5065 18.6187 20.5082 19.1462L20.5133 20.7306L20.5116 22.3151L20.4058 22.1753L21.9665 22.5784L22.7464 22.7808L23.5255 22.9866L23.3392 23.0653L24.1318 21.6393L24.932 20.2183L25.3326 19.5078L25.7357 18.799L26.5444 17.3823L26.6359 17.5906L25.0904 17.2002L23.5466 16.8031C23.0318 16.671 22.5194 16.5304 22.0054 16.3949L21.2348 16.19L20.4667 15.9766Z" fill="#754C24"/>
<path d="M26.7895 17.333L30.0514 20.8905L26.5481 17.571C26.4804 17.5066 26.477 17.3991 26.5413 17.3313C26.6057 17.2636 26.7132 17.2602 26.781 17.3245C26.7844 17.3271 26.7869 17.3296 26.7895 17.333Z" fill="#754C24"/>
<defs>
<linearGradient id="paint0_linear_118_868" x1="31.8676" y1="26.4675" x2="20.9596" y2="7.79887" gradientUnits="userSpaceOnUse">
<stop stop-color="#F98B4E"/>
<stop offset="1" stop-color="#FF8B1B"/>
</linearGradient>
<linearGradient id="paint1_linear_118_868" x1="2.09025" y1="22.2933" x2="11.8652" y2="22.2933" gradientUnits="userSpaceOnUse">
<stop stop-color="#DB7D52"/>
<stop offset="1" stop-color="#DB7D52"/>
</linearGradient>
<linearGradient id="paint2_linear_118_868" x1="23.846" y1="22.2153" x2="24.1275" y2="15.8763" gradientUnits="userSpaceOnUse">
<stop stop-color="#ED6B22"/>
<stop offset="1" stop-color="#F38317"/>
</linearGradient>
</defs>
</svg>
