<svg width="48" height="48" viewBox="0 0 48 48" fill="none" xmlns="http://www.w3.org/2000/svg">
<path d="M2.58203 25.8001L25.7389 16.9349L29.4999 11.4907L9.84576 18.9487L2.58203 25.8001Z" fill="url(#paint0_linear_118_920)"/>
<path d="M9.93912 19.0479L2.58203 25.7998L9.75239 18.8496C9.80623 18.7971 9.89278 18.7984 9.94525 18.8523C9.99772 18.9061 9.99636 18.9927 9.94252 19.0451C9.94116 19.0458 9.9398 19.0472 9.93912 19.0479Z" fill="#754C24"/>
<path d="M43.6453 23.4316V32.3493L26.1201 38.9997V30.082L43.6453 23.4316Z" fill="#E3E3E3"/>
<path d="M19.642 20.7946L15.526 24.6769L11.4099 18.7754L4.93262 24.8847V33.8017L13.1647 35.8215L26.1193 38.9999V30.0822L19.642 20.7946Z" fill="#C9C9C9"/>
<path d="M29.5008 11.4907L9.84668 18.9487L14.4622 25.567L34.1163 18.1091L29.5008 11.4907Z" fill="url(#paint1_linear_118_920)"/>
<path d="M14.4609 25.567L34.2357 18.2821L38.7306 13.7559L19.0772 21.2138L14.4609 25.567Z" fill="url(#paint2_linear_118_920)"/>
<path d="M14.4609 25.5673L16.9231 24.6296L19.3866 23.6967L21.8514 22.7672L24.3183 21.8431L29.2521 19.9957L34.1927 18.1652L34.1471 18.1946L38.6338 13.6594L38.779 13.8829L28.9455 17.5942L27.7161 18.0583L26.4854 18.5176L24.0232 19.4362L19.099 21.2714L19.1194 21.2584L16.7922 23.4146L15.6283 24.492L14.4609 25.5673ZM14.4609 25.5673L15.6017 24.4654L16.7452 23.3662L19.0336 21.1685C19.0397 21.163 19.0458 21.1589 19.0533 21.1562L19.0547 21.1555L23.9571 19.2617L26.409 18.3159L27.635 17.8429L28.8623 17.3747L38.6822 13.6281C38.7524 13.6015 38.8314 13.6362 38.858 13.7064C38.8778 13.7582 38.8642 13.8141 38.8274 13.8509L34.3242 18.3697C34.3113 18.3826 34.2956 18.3922 34.2793 18.3983L29.3325 20.211L24.379 22.006L21.9018 22.9035L19.4227 23.7948L16.9428 24.6834L14.4609 25.5673Z" fill="#754C24"/>
<path d="M14.4609 25.567C14.8671 25.4028 15.2726 25.2365 15.6794 25.075L16.8999 24.5885C17.7129 24.2627 18.5279 23.9417 19.3436 23.6215L21.7921 22.6667L24.2434 21.7202L26.6973 20.7811L29.154 19.8482L31.6127 18.9221L34.0748 18.0035L34.0224 18.1745L32.8829 16.5097L31.7483 14.8415L30.6212 13.1685L30.0583 12.3316L29.4995 11.4907L30.0951 12.3051L30.6859 13.1228L31.8669 14.759L33.0404 16.4L34.2091 18.0444C34.2452 18.0948 34.2329 18.1657 34.1825 18.2011C34.175 18.2065 34.1668 18.2106 34.1586 18.214L34.1566 18.2147L31.7054 19.1606L29.2507 20.099L26.792 21.0312L24.3326 21.9566L21.8705 22.8746L19.405 23.7836C18.5824 24.0849 17.7599 24.3861 16.9353 24.6811L15.6992 25.1268C15.2876 25.2767 14.8739 25.4205 14.4609 25.567Z" fill="#754C24"/>
<path d="M14.4614 25.567L13.8658 24.7527L13.275 23.9349L12.0947 22.2987L10.9212 20.6578L9.75321 19.0134C9.71709 18.963 9.72936 18.8928 9.77979 18.8573C9.78728 18.8519 9.79546 18.8478 9.80364 18.8444L9.80568 18.8437L12.2569 17.8978L14.7115 16.9595C15.5293 16.646 16.3484 16.3359 17.1682 16.0272L19.6276 15.1011L22.0898 14.1832L24.5553 13.2741L25.7894 12.823L27.0256 12.3766L28.2618 11.9309C28.6734 11.7817 29.087 11.6372 29.5 11.4907C29.0938 11.655 28.6884 11.8212 28.2815 11.9827L27.061 12.4693L25.8398 12.9552L24.6173 13.4363L22.1695 14.3917L19.7183 15.3383L17.2643 16.2773C16.4465 16.5901 15.6274 16.9015 14.8076 17.2096L12.3489 18.1357L9.88678 19.0543L9.93925 18.8839L11.0787 20.5487L12.2133 22.217L13.3404 23.89L13.9033 24.7268L14.4614 25.567Z" fill="#754C24"/>
<path d="M19.642 21.4121L15.5566 25.1349V36.4084L26.1193 39V30.3849L19.642 21.4121Z" fill="#C9C9C9"/>
<path d="M38.7306 13.7559L19.0771 21.2138L26.3409 31.6293L45.9943 24.1714L38.7306 13.7559Z" fill="url(#paint3_linear_118_920)"/>
<path d="M38.7318 13.7559L36.2839 14.7113L33.8341 15.6612L31.3842 16.6112L28.9323 17.5557L24.0271 19.442L21.5745 20.3851L19.1199 21.3235L19.1744 21.1463L26.4531 31.5509L26.293 31.5012L36.1252 27.7865C37.7648 27.1691 39.4016 26.5449 41.0426 25.9323L45.9641 24.0896L45.9239 24.2197L44.1194 21.6077L42.3203 18.9922L40.5233 16.3754L38.7318 13.7559ZM38.7318 13.7559L40.571 16.3434L42.4062 18.9343L44.2387 21.5266L46.0664 24.1223C46.0936 24.1611 46.0841 24.215 46.0452 24.2422C46.0398 24.2463 46.0336 24.2497 46.0268 24.2518L46.0255 24.2524L41.1203 26.1387C39.4861 26.7691 37.8472 27.3885 36.211 28.0141L26.3898 31.7574C26.3305 31.7799 26.2644 31.7581 26.2296 31.7077L18.9809 21.2813V21.2806C18.9441 21.2274 18.957 21.1545 19.0102 21.117C19.0184 21.1116 19.0272 21.1068 19.0361 21.1034L21.4948 20.1773L23.9556 19.256L28.8771 17.4133L31.3386 16.494L33.8027 15.5795L36.2662 14.6649L38.7318 13.7559Z" fill="#754C24"/>
<path fill-rule="evenodd" clip-rule="evenodd" d="M9.7683 18.8365C9.83004 18.7935 9.915 18.8086 9.95806 18.8704L14.4832 25.3592L18.9845 21.1143C19.0134 21.0872 19.0526 21.0739 19.0921 21.0779C19.1315 21.082 19.1672 21.103 19.1898 21.1355L22.7089 26.1818C22.752 26.2435 22.7368 26.3285 22.6751 26.3715C22.6134 26.4146 22.5284 26.3994 22.4853 26.3377L19.0566 21.421L14.5553 25.6659C14.5265 25.693 14.4872 25.7063 14.4478 25.7023C14.4084 25.6982 14.3727 25.6772 14.35 25.6447L9.73447 19.0263C9.69142 18.9645 9.70656 18.8796 9.7683 18.8365Z" fill="#754C24"/>
<defs>
<linearGradient id="paint0_linear_118_920" x1="2.58203" y1="18.6454" x2="29.4997" y2="18.6454" gradientUnits="userSpaceOnUse">
<stop stop-color="#DB7D52"/>
<stop offset="1" stop-color="#DB7D52"/>
</linearGradient>
<linearGradient id="paint1_linear_118_920" x1="24.6804" y1="22.617" x2="18.512" y2="10.2275" gradientUnits="userSpaceOnUse">
<stop stop-color="#F98B4E"/>
<stop offset="1" stop-color="#FF8B1B"/>
</linearGradient>
<linearGradient id="paint2_linear_118_920" x1="14.4612" y1="19.6614" x2="38.7307" y2="19.6614" gradientUnits="userSpaceOnUse">
<stop stop-color="#DB7D52"/>
<stop offset="1" stop-color="#DB7D52"/>
</linearGradient>
<linearGradient id="paint3_linear_118_920" x1="35.529" y1="27.8835" x2="27.0833" y2="13.0664" gradientUnits="userSpaceOnUse">
<stop stop-color="#F98B4E"/>
<stop offset="1" stop-color="#FF8B1B"/>
</linearGradient>
</defs>
</svg>
