<svg width="48" height="48" viewBox="0 0 48 48" fill="none" xmlns="http://www.w3.org/2000/svg">
<path d="M42.0274 19.9478V35.2093L33.2803 39.6031V24.3425L42.0274 19.9478Z" fill="#EFEFEF"/>
<path d="M15.7862 24.3425V39.6031L7.03906 35.2093V19.9478L15.7862 24.3425Z" fill="#C9C9C9"/>
<path d="M33.2804 24.3428H15.7861V39.6034H33.2804V24.3428Z" fill="#E3E3E3"/>
<path d="M34.2658 24.8377L24.5328 9.35938L14.7998 24.8377H34.2658Z" fill="url(#paint0_linear_118_383)"/>
<path d="M44.0001 19.9481L24.5332 9.35938L34.2662 24.8377L44.0001 19.9481Z" fill="url(#paint1_linear_118_383)"/>
<path d="M24.5333 9.35938L5.06641 19.9481L14.8003 24.8377L24.5333 9.35938Z" fill="url(#paint2_linear_118_383)"/>
<path d="M34.2663 24.8378L33.0203 22.9218L31.78 21.0019L30.5397 19.0821L29.3079 17.1566L26.8461 13.3047L25.6152 11.3792L24.391 9.44905H24.6747L22.2534 13.3264L19.8247 17.199L17.3874 21.067L14.9445 24.9311L14.7984 24.6663C16.4204 24.6738 18.0424 24.6748 19.6654 24.6899L24.5323 24.7257L26.9658 24.7436L29.3993 24.7728L31.8328 24.802L34.2663 24.8378ZM34.2663 24.8378L31.8328 24.8746L29.3993 24.9038L26.9658 24.933L24.5323 24.9509L19.6654 24.9867C18.0434 25.0018 16.4214 25.0018 14.7984 25.0103C14.7032 25.0103 14.6259 24.934 14.625 24.8388C14.625 24.8048 14.6344 24.7737 14.6504 24.7473L14.6514 24.7455L17.0754 20.87L19.5052 16.9983L21.9434 13.1313L24.3891 9.26904L24.39 9.26809C24.439 9.18987 24.5427 9.16725 24.6209 9.21626C24.6426 9.2304 24.6605 9.2483 24.6737 9.26904L25.8829 11.2087L27.0855 13.152L29.4907 17.0398L30.6914 18.9841L31.8846 20.9331L33.0778 22.8822L34.2663 24.8378Z" fill="#754C24"/>
<path d="M44.0001 19.948L42.7721 19.308L41.5459 18.6634L39.0955 17.3722L37.8712 16.7247L36.6488 16.0725L34.205 14.7681L31.7611 13.4637L29.321 12.1527L26.8819 10.8389L24.4466 9.51946L24.6897 9.26028L27.126 13.1282L29.5538 17.0009L31.9722 20.8801L34.3774 24.7678L34.2097 24.7207L36.6526 23.5181L37.874 22.9168L39.0983 22.3202L41.5478 21.1298L42.773 20.5361L44.0001 19.948ZM44.0001 19.948L42.7947 20.5804L41.5864 21.209L39.169 22.4635L37.9598 23.0893L36.7478 23.7104L34.3246 24.9525C34.2653 24.9827 34.1936 24.9629 34.1588 24.9082L34.1578 24.9064L31.6961 21.0545L29.2475 17.1941L26.8084 13.328L24.3777 9.45631C24.324 9.37055 24.3495 9.25746 24.4352 9.20374C24.4937 9.16698 24.5643 9.16792 24.6209 9.19808L27.0516 10.526L29.4794 11.8596L31.9053 13.1961L34.3284 14.5391L36.7515 15.8821L37.9626 16.5541L39.1718 17.2308L41.5874 18.5861L42.7947 19.2647L44.0001 19.948Z" fill="#754C24"/>
<path d="M14.8 24.8378L15.9847 22.8831L17.176 20.9321L18.3682 18.9822L19.569 17.0378L21.9714 13.1482L24.386 9.26614L24.6159 9.5112L19.7547 12.169L14.8867 14.8145L12.4514 16.134L10.0122 17.4478L7.57124 18.7578L5.12738 20.0622L5.12362 19.8332L7.54673 21.0754L8.75875 21.6965L9.96795 22.3223L12.3854 23.5767L13.5937 24.2054L14.8 24.8378L13.5729 24.2478L12.3477 23.654L9.89821 22.4637L8.67393 21.8671L7.45248 21.2658L5.00957 20.0632C4.94548 20.0321 4.9191 19.9548 4.95114 19.8907C4.9634 19.8662 4.98225 19.8473 5.00393 19.8351L5.00582 19.8341L7.42892 18.4911L9.85486 17.1547L12.2827 15.8211L14.7133 14.4931L19.5793 11.8438L24.4519 9.20676L24.4529 9.20582C24.5377 9.16058 24.6423 9.1917 24.6885 9.27558C24.7196 9.33307 24.7149 9.39998 24.6819 9.45182L22.2296 13.3094L19.765 17.1594L18.5332 19.0849L17.2919 21.0047L16.0498 22.9236L14.8 24.8378Z" fill="#754C24"/>
<defs>
<linearGradient id="paint0_linear_118_383" x1="26.6975" y1="21.5938" x2="18.7816" y2="9.9965" gradientUnits="userSpaceOnUse">
<stop stop-color="#F98B4E"/>
<stop offset="1" stop-color="#FF8B1B"/>
</linearGradient>
<linearGradient id="paint1_linear_118_383" x1="36.4315" y1="21.5938" x2="28.5157" y2="9.99615" gradientUnits="userSpaceOnUse">
<stop stop-color="#F98B4E"/>
<stop offset="1" stop-color="#FF8B1B"/>
</linearGradient>
<linearGradient id="paint2_linear_118_383" x1="15.8107" y1="22.8288" x2="16.2357" y2="9.12912" gradientUnits="userSpaceOnUse">
<stop stop-color="#ED6B22"/>
<stop offset="1" stop-color="#F38317"/>
</linearGradient>
</defs>
</svg>
