<svg width="48" height="48" viewBox="0 0 48 48" fill="none" xmlns="http://www.w3.org/2000/svg">
<path d="M23.5319 38.6076L4.83984 33.6469V21.3853L23.5319 26.3467V38.6076Z" fill="#C9C9C9"/>
<path d="M23.5312 38.608L42.2233 31.3576V19.0967L23.5312 26.3471V38.608Z" fill="#E3E3E3"/>
<path d="M23.5312 9.14062V27.1538L44.0627 19.1893L23.5312 9.14062Z" fill="url(#paint0_linear_118_407)"/>
<path d="M3 21.7045L23.5315 27.1538V9.14062L3 21.7045Z" fill="url(#paint1_linear_118_407)"/>
<path d="M44.0633 19.1894L41.4828 17.9613L38.9054 16.7279L36.3289 15.4929L33.7561 14.2502L28.6098 11.7657L23.4712 9.26499L23.6698 9.14072L23.6844 18.1469L23.6683 27.1532L23.4819 27.0258L26.0501 26.0348C26.9061 25.7034 27.7622 25.3743 28.6198 25.0483L33.763 23.0846L36.335 22.1027L38.9101 21.1293L41.4851 20.1567L44.0633 19.1894L41.5081 20.2134L38.9507 21.2313L36.3925 22.2485L33.8313 23.258L28.7095 25.2761C27.8565 25.6136 27.002 25.9481 26.1467 26.281L23.5824 27.2813C23.5118 27.3089 23.4328 27.2736 23.4052 27.2038C23.399 27.1877 23.396 27.1708 23.396 27.1547V27.1539L23.3799 18.1477L23.3945 9.14149V9.14072C23.3945 9.06478 23.4566 9.00266 23.5325 9.00342C23.554 9.00342 23.5747 9.00879 23.5931 9.01723L28.7202 11.5409L33.8397 14.0807L36.3994 15.3502L38.9553 16.6274L41.5104 17.9061L44.0633 19.1894Z" fill="#754C24"/>
<path d="M3 21.7044L5.57354 22.3572L8.14554 23.0161L10.7175 23.675L13.288 24.3416L18.4282 25.6763L20.9979 26.3452L23.5653 27.0218L23.3957 27.1522L23.3796 18.1459L23.3781 15.8946L23.3819 13.6432L23.3896 9.13972L23.6028 9.25939L18.4642 12.3913L13.3149 15.5049L10.7398 17.0621L8.16164 18.6131L5.58121 20.161L3 21.7044ZM3 21.7044L5.54977 20.1066L8.10258 18.5134L10.6569 16.9232L13.2151 15.3392L18.3315 12.1712L23.4586 9.02083C23.5246 8.98017 23.6105 9.00088 23.6512 9.06685C23.665 9.08986 23.6719 9.11441 23.6719 9.13972V9.14049L23.6795 13.644L23.6834 15.8953L23.6819 18.1467L23.6657 27.1529V27.1537C23.6657 27.2281 23.6051 27.2887 23.5307 27.2879C23.5192 27.2879 23.507 27.2864 23.4962 27.2833L20.9311 26.5976L18.3676 25.9049L13.242 24.5157L10.6792 23.8207L8.1187 23.1173L5.5582 22.4139L3 21.7044Z" fill="#754C24"/>
<defs>
<linearGradient id="paint0_linear_118_407" x1="36.0802" y1="23.3787" x2="26.5726" y2="10.7545" gradientUnits="userSpaceOnUse">
<stop stop-color="#F98B4E"/>
<stop offset="1" stop-color="#FF8B1B"/>
</linearGradient>
<linearGradient id="paint1_linear_118_407" x1="14.3319" y1="24.8159" x2="14.8776" y2="8.87599" gradientUnits="userSpaceOnUse">
<stop stop-color="#ED6B22"/>
<stop offset="1" stop-color="#F38317"/>
</linearGradient>
</defs>
</svg>
