<svg width="20" height="20" viewBox="0 0 20 20" xmlns="http://www.w3.org/2000/svg">
<path fill-rule="evenodd" clip-rule="evenodd" d="M3 2.5C1.61929 2.5 0.5 3.61929 0.5 5V15C0.5 16.3807 1.61929 17.5 3 17.5H17C18.3807 17.5 19.5 16.3807 19.5 15V5C19.5 3.61929 18.3807 2.5 17 2.5H3ZM1.5 5C1.5 4.17157 2.17157 3.5 3 3.5H17C17.8284 3.5 18.5 4.17157 18.5 5V6.70532L10.7284 11.0229C10.2753 11.2746 9.72447 11.2746 9.27144 11.0229L1.5 6.70543V5ZM1.5 7.84939V15C1.5 15.8284 2.17157 16.5 3 16.5H17C17.8284 16.5 18.5 15.8284 18.5 15V7.84928L11.214 11.8971C10.459 12.3165 9.54085 12.3165 8.78579 11.8971L1.5 7.84939Z"/>
</svg>
