<svg width="21" height="21" viewBox="0 0 21 21" xmlns="http://www.w3.org/2000/svg">
<path d="M11.1779 16.0886C4.8874 16.0886 1.2994 11.7761 1.1499 4.6001H4.3009C4.4044 9.8671 6.7274 12.0981 8.5674 12.5581V4.6001H11.5344V9.1426C13.3514 8.9471 15.2604 6.8771 15.9044 4.6001H18.8714C18.6287 5.78101 18.145 6.89915 17.4504 7.88458C16.7559 8.87 15.8655 9.70151 14.8349 10.3271C15.9853 10.8987 17.0014 11.7078 17.8161 12.7009C18.6308 13.6941 19.2257 14.8487 19.5614 16.0886H16.2954C15.994 15.0116 15.3815 14.0476 14.5346 13.3173C13.6876 12.5869 12.644 12.1228 11.5344 11.9831V16.0886H11.1779V16.0886Z"/>
</svg>
