<svg width="21" height="21" viewBox="0 0 21 21" xmlns="http://www.w3.org/2000/svg">
<path fill-rule="evenodd" clip-rule="evenodd" d="M17.9992 3.87231C18.8366 4.09961 19.4968 4.76525 19.7223 5.60949C20.141 7.15184 20.1249 10.3664 20.1249 10.3664C20.1249 10.3664 20.1249 13.5648 19.7223 15.1071C19.4968 15.9514 18.8366 16.617 17.9992 16.8443C16.4693 17.2502 10.3499 17.2502 10.3499 17.2502C10.3499 17.2502 4.2466 17.2502 2.70064 16.8281C1.86325 16.6008 1.203 15.9351 0.977544 15.0909C0.574951 13.5648 0.574951 10.3502 0.574951 10.3502C0.574951 10.3502 0.574951 7.15184 0.977544 5.60949C1.203 4.76525 1.87935 4.08337 2.70064 3.85608C4.2305 3.4502 10.3499 3.4502 10.3499 3.4502C10.3499 3.4502 16.4693 3.4502 17.9992 3.87231Z"/>
<path fill-rule="evenodd" clip-rule="evenodd" d="M8.51611 7.68311L13.3055 10.4224L8.51611 13.1617V7.68311Z" fill="white"/>
</svg>
