<svg width="21" height="21" viewBox="0 0 21 21" xmlns="http://www.w3.org/2000/svg">
<path fill-rule="evenodd" clip-rule="evenodd" d="M14.9498 6.17674C14.9498 8.63082 12.882 10.6271 10.3383 10.6271C7.79518 10.6271 5.72689 8.63082 5.72689 6.17674C5.72689 3.72187 7.79518 1.7251 10.3383 1.7251C12.882 1.7251 14.9498 3.72187 14.9498 6.17674ZM12.2477 6.17674C12.2477 5.16038 11.3912 4.33392 10.3383 4.33392C9.28626 4.33392 8.42898 5.16038 8.42898 6.17674C8.42898 7.19231 9.28626 8.0193 10.3383 8.0193C11.3912 8.0193 12.2477 7.19231 12.2477 6.17674Z"/>
<path d="M14.8937 13.1899C14.0599 13.6954 13.1546 14.0539 12.2159 14.2603L14.7938 16.749C15.3219 17.2577 15.3219 18.0839 14.7938 18.5932C14.2663 19.1024 13.4112 19.1024 12.8842 18.5932L10.3496 16.1476L7.81719 18.5932C7.55313 18.8475 7.20713 18.9748 6.86112 18.9748C6.51567 18.9748 6.17022 18.8475 5.90617 18.5932C5.37861 18.0839 5.37861 17.2583 5.90561 16.749L8.48381 14.2603C7.54513 14.0539 6.63984 13.6949 5.80601 13.1899C5.17498 12.8058 4.98542 12.0012 5.38302 11.3915C5.77952 10.7811 6.61335 10.5973 7.24548 10.9814C9.13332 12.1277 11.5653 12.128 13.4542 10.9814C14.0864 10.5973 14.9199 10.7811 15.3172 11.3915C15.7148 12.0007 15.5247 12.8058 14.8937 13.1899Z"/>
</svg>
