<svg width="25" height="24" viewBox="0 0 25 24" fill="none" xmlns="http://www.w3.org/2000/svg">
    <path d="M12.5 0C5.88531 0 0.5 5.38531 0.5 12C0.5 18.6147 5.88531 24 12.5 24C19.1147 24 24.5 18.6147 24.5 12C24.5 5.38531 19.1147 0 12.5 0ZM13.4943 19.6678C13.2004 19.9616 12.7914 20.0767 12.3824 20.0767C11.9735 20.0767 11.562 19.9592 11.2706 19.6678C10.9767 19.3739 10.8029 19.0237 10.8029 18.4971C10.8029 18.0294 10.9792 17.6767 11.2706 17.3853C11.5645 17.0914 11.9735 16.9176 12.3824 16.9176C12.8502 16.9176 13.2029 17.0939 13.4943 17.3853C13.7882 17.6792 13.962 18.0882 13.962 18.4971C13.9645 19.0237 13.7882 19.3763 13.4943 19.6678ZM17.4176 9.89388C17.1824 10.3616 16.891 10.7143 16.5384 11.0645C16.1882 11.4147 15.6029 11.9437 14.7237 12.7029C14.4886 12.938 14.3147 13.1118 14.1384 13.2882C14.0208 13.4645 13.9033 13.582 13.8445 13.7559C13.7857 13.8735 13.7269 14.0498 13.6682 14.1649C13.6094 14.2824 13.5506 14.5151 13.4918 14.8678C13.3743 15.5706 12.9653 15.9796 12.2624 15.9796C11.9122 15.9796 11.6184 15.862 11.3269 15.6294C11.0918 15.3943 10.9767 15.0441 10.9767 14.5763C10.9767 13.991 11.0943 13.4645 11.2706 13.0555C11.4469 12.6465 11.6796 12.2351 11.9735 11.9437C12.2673 11.5935 12.6763 11.2408 13.2029 10.7731C13.6706 10.3641 13.9645 10.0702 14.1971 9.89388C14.3735 9.71755 14.5473 9.4849 14.7237 9.2498C14.8412 9.01469 14.9588 8.72327 14.9588 8.42939C14.9588 7.84408 14.7237 7.37633 14.3147 7.02367C13.9057 6.61469 13.3792 6.43837 12.6763 6.43837C11.9147 6.43837 11.3294 6.61469 10.9792 7.02367C10.629 7.43265 10.2763 7.95918 10.0437 8.72082C9.80857 9.54122 9.34082 9.89143 8.69674 9.89143C8.28776 9.89143 7.99388 9.77388 7.70245 9.48245C7.40857 9.18857 7.29347 8.89714 7.29347 8.60326C7.29347 7.95918 7.52857 7.25633 7.93755 6.55347C8.34653 5.85061 8.99061 5.32408 9.81102 4.85633C10.6314 4.38857 11.5669 4.15347 12.6788 4.15347C13.6731 4.15347 14.611 4.3298 15.3727 4.73878C16.1343 5.08898 16.7784 5.61796 17.1873 6.25959C17.5963 6.90367 17.8314 7.60653 17.8314 8.36571C17.8265 8.95592 17.6502 9.48245 17.4176 9.89388Z" fill="white"/>
</svg>