<svg width="20" height="20" viewBox="0 0 20 20" xmlns="http://www.w3.org/2000/svg">
<path fill-rule="evenodd" clip-rule="evenodd" d="M15.6687 4.32523C14.1646 2.82659 12.1644 2.00092 10.0334 2C5.64233 2 2.06852 5.55649 2.06676 9.9279C2.06622 11.3252 2.43299 12.6892 3.13018 13.8916L2 18L6.22318 16.8975C7.38678 17.5291 8.69685 17.8621 10.0302 17.8625H10.0334C14.424 17.8625 17.9981 14.3056 18 9.93408C18.0007 7.81573 17.1728 5.82378 15.6687 4.32523ZM13.6654 11.588C13.4664 11.4889 12.4878 11.0097 12.3053 10.9435C12.1229 10.8775 11.9901 10.8444 11.8574 11.0428C11.7248 11.2411 11.3432 11.6873 11.2271 11.8195C11.111 11.9517 10.9948 11.9683 10.7959 11.8691C10.5967 11.77 9.95542 11.5607 9.19507 10.8858C8.60334 10.3605 8.20385 9.7118 8.08773 9.51339C7.9716 9.31506 8.07531 9.20788 8.17503 9.10909C8.26455 9.0203 8.37409 8.87766 8.47365 8.76201C8.57322 8.64637 8.60633 8.56368 8.67271 8.43148C8.73909 8.29928 8.7059 8.18357 8.65607 8.08448C8.60633 7.98523 8.20822 7.01012 8.04235 6.61345C7.88078 6.22724 7.71667 6.27949 7.59449 6.27339C7.47852 6.26767 7.34569 6.26637 7.21294 6.26637C7.08026 6.26637 6.86465 6.31596 6.68215 6.51429C6.49972 6.71262 5.98549 7.1919 5.98549 8.16701C5.98549 9.14212 6.6987 10.0841 6.79827 10.2163C6.89776 10.3485 8.20193 12.3495 10.1987 13.2076C10.6735 13.4118 11.0444 13.5336 11.3335 13.625C11.8104 13.7758 12.2443 13.7544 12.5872 13.7035C12.9697 13.6466 13.7649 13.2242 13.9308 12.7615C14.0967 12.2987 14.0967 11.902 14.0469 11.8194C13.9972 11.7369 13.8645 11.6873 13.6654 11.588Z" />
</svg>
