<svg width="92" height="92" viewBox="0 0 92 92" fill="none" xmlns="http://www.w3.org/2000/svg">
<path d="M55.5833 61.3333C52.4076 61.3333 49.8333 58.7589 49.8333 55.5833C49.8333 52.4076 52.4076 49.8333 55.5833 49.8333C58.7589 49.8333 61.3333 52.4076 61.3333 55.5833C61.3333 58.7589 58.7589 61.3333 55.5833 61.3333ZM36.4166 42.1666C33.241 42.1666 30.6666 39.5923 30.6666 36.4166C30.6666 33.241 33.241 30.6666 36.4166 30.6666C39.5923 30.6666 42.1666 33.241 42.1666 36.4166C42.1666 39.5923 39.5923 42.1666 36.4166 42.1666ZM54.7894 31.7894C56.2864 30.2924 58.7135 30.2924 60.2105 31.7894C61.7075 33.2864 61.7075 35.7135 60.2105 37.2105L37.2105 60.2105C35.7135 61.7075 33.2864 61.7075 31.7894 60.2105C30.2924 58.7135 30.2924 56.2864 31.7894 54.7894L54.7894 31.7894ZM46 82.0463C44.2269 82.0463 42.9903 82.3135 41.211 82.9596L40.1428 83.3535C39.679 83.5228 39.3052 83.6513 38.9252 83.7681C36.1462 84.6223 33.6256 84.5525 30.5574 83.2816C26.9746 81.7976 25.2938 79.9191 23.7278 76.5527C22.3502 73.5913 21.9785 72.9558 20.5113 71.4886C19.0441 70.0214 18.4086 69.6497 15.4472 68.2721C12.0808 66.7061 10.2023 65.0253 8.71828 61.4425C7.44739 58.3743 7.37764 55.8537 8.23185 53.0747C8.34864 52.6947 8.47713 52.3209 8.6464 51.8571L9.04033 50.7889C9.68646 49.0096 9.95361 47.773 9.95361 46C9.95361 44.2269 9.68646 42.9903 9.04033 41.211L8.6464 40.1428C8.47713 39.679 8.34864 39.3052 8.23185 38.9252C7.37764 36.1462 7.44739 33.6256 8.71828 30.5574C10.2023 26.9746 12.0808 25.2938 15.4472 23.7278C18.4086 22.3502 19.0441 21.9785 20.5113 20.5113C21.9785 19.0441 22.3502 18.4086 23.7278 15.4472C25.2938 12.0808 26.9746 10.2023 30.5574 8.71828C33.6256 7.44739 36.1462 7.37764 38.9252 8.23185C39.3052 8.34864 39.679 8.47713 40.1428 8.6464L41.211 9.04033C42.9903 9.68646 44.2269 9.95361 46 9.95361C47.773 9.95361 49.0096 9.68646 50.7889 9.04033L51.8571 8.6464C52.3209 8.47713 52.6947 8.34864 53.0747 8.23185C55.8537 7.37764 58.3743 7.44739 61.4425 8.71828C65.0253 10.2023 66.7061 12.0808 68.2721 15.4472C69.6497 18.4086 70.0214 19.0441 71.4886 20.5113C72.9558 21.9785 73.5913 22.3502 76.5527 23.7278C79.9191 25.2938 81.7976 26.9746 83.2816 30.5574C84.5525 33.6256 84.6223 36.1462 83.7681 38.9252C83.6513 39.3052 83.5228 39.679 83.3535 40.1428L82.9596 41.211C82.3135 42.9903 82.0463 44.2269 82.0463 46C82.0463 47.773 82.3135 49.0096 82.9596 50.7889L83.3535 51.8571C83.5228 52.3209 83.6513 52.6947 83.7681 53.0747C84.6223 55.8537 84.5525 58.3743 83.2816 61.4425C81.7976 65.0253 79.9191 66.7061 76.5527 68.2721C73.5913 69.6497 72.9558 70.0214 71.4886 71.4886C70.0214 72.9558 69.6497 73.5913 68.2721 76.5527C66.7061 79.9191 65.0253 81.7976 61.4425 83.2816C58.3743 84.5525 55.8537 84.6223 53.0747 83.7681C52.6947 83.6513 52.3209 83.5228 51.8571 83.3535L50.7889 82.9596C49.0096 82.3135 47.773 82.0463 46 82.0463ZM46 74.3796C48.7836 74.3796 50.8554 74.8272 53.4058 75.7533L54.4857 76.1515C54.8358 76.2793 55.0944 76.3682 55.3272 76.4398C56.4493 76.7847 57.1397 76.7656 58.5086 76.1986C60.0907 75.5432 60.4977 75.0883 61.3208 73.319C61.2575 73.4551 61.8061 72.2619 61.9794 71.9007C62.284 71.2656 62.5778 70.7029 62.9083 70.138C63.7487 68.7009 64.7602 67.3747 66.0674 66.0674C67.3747 64.7602 68.7009 63.7487 70.138 62.9083C70.7029 62.5778 71.2656 62.284 71.9007 61.9794C72.2619 61.8061 73.4551 61.2575 73.319 61.3208C75.0883 60.4977 75.5432 60.0907 76.1986 58.5086C76.7656 57.1397 76.7847 56.4493 76.4398 55.3272C76.3682 55.0944 76.2793 54.8358 76.1515 54.4857L75.7533 53.4058C74.8272 50.8554 74.3796 48.7836 74.3796 46C74.3796 43.2163 74.8272 41.1446 75.7533 38.5941L76.1515 37.5143C76.2793 37.1641 76.3682 36.9055 76.4398 36.6727C76.7847 35.5506 76.7656 34.8602 76.1986 33.4913C75.5432 31.9092 75.0883 31.5022 73.319 30.6791C73.4551 30.7425 72.2619 30.1938 71.9007 30.0205C71.2656 29.7159 70.7029 29.4221 70.138 29.0917C68.7009 28.2513 67.3747 27.2397 66.0674 25.9325C64.7602 24.6252 63.7487 23.299 62.9083 21.862C62.5778 21.297 62.284 20.7343 61.9794 20.0992C61.8061 19.738 61.2575 18.5448 61.3208 18.6809C60.4977 16.9116 60.0907 16.4567 58.5086 15.8014C57.1397 15.2343 56.4493 15.2152 55.3272 15.5601C55.0944 15.6317 54.8358 15.7206 54.4857 15.8484L53.4058 16.2466C50.8554 17.1727 48.7836 17.6203 46 17.6203C43.2163 17.6203 41.1446 17.1727 38.5941 16.2466L37.5143 15.8484C37.1641 15.7206 36.9055 15.6317 36.6727 15.5601C35.5506 15.2152 34.8602 15.2343 33.4913 15.8014C31.9092 16.4567 31.5022 16.9116 30.6791 18.6809C30.7425 18.5448 30.1938 19.738 30.0205 20.0992C29.7159 20.7343 29.4221 21.297 29.0917 21.862C28.2513 23.299 27.2397 24.6252 25.9325 25.9325C24.6252 27.2397 23.299 28.2513 21.862 29.0917C21.297 29.4221 20.7343 29.7159 20.0992 30.0205C19.738 30.1938 18.5448 30.7425 18.6809 30.6791C16.9116 31.5022 16.4567 31.9092 15.8014 33.4913C15.2343 34.8602 15.2152 35.5506 15.5601 36.6727C15.6317 36.9055 15.7206 37.1641 15.8484 37.5143L16.2466 38.5941C17.1727 41.1446 17.6203 43.2163 17.6203 46C17.6203 48.7836 17.1727 50.8554 16.2466 53.4058L15.8484 54.4857C15.7206 54.8358 15.6317 55.0944 15.5601 55.3272C15.2152 56.4493 15.2343 57.1397 15.8014 58.5086C16.4567 60.0907 16.9116 60.4977 18.6809 61.3208C18.5448 61.2575 19.738 61.8061 20.0992 61.9794C20.7343 62.284 21.297 62.5778 21.862 62.9083C23.299 63.7487 24.6252 64.7602 25.9325 66.0674C27.2397 67.3747 28.2513 68.7009 29.0917 70.138C29.4221 70.7029 29.7159 71.2656 30.0205 71.9007C30.1938 72.2619 30.7425 73.4551 30.6791 73.319C31.5022 75.0883 31.9092 75.5432 33.4913 76.1986C34.8602 76.7656 35.5506 76.7847 36.6727 76.4398C36.9055 76.3682 37.1641 76.2793 37.5143 76.1515L38.5941 75.7533C41.1446 74.8272 43.2163 74.3796 46 74.3796Z" fill="white"/>
</svg>
