<svg width="93" height="92" viewBox="0 0 93 92" fill="none" xmlns="http://www.w3.org/2000/svg">
<path fill-rule="evenodd" clip-rule="evenodd" d="M15.8333 46C15.8333 29.0632 29.5632 15.3333 46.5 15.3333C63.4367 15.3333 77.1666 29.0632 77.1666 46C77.1666 62.9367 63.4367 76.6666 46.5 76.6666C29.5632 76.6666 15.8333 62.9367 15.8333 46ZM46.5 7.66663C25.329 7.66663 8.16663 24.829 8.16663 46C8.16663 67.1709 25.329 84.3333 46.5 84.3333C67.6709 84.3333 84.8333 67.1709 84.8333 46C84.8333 24.829 67.6709 7.66663 46.5 7.66663ZM43.4974 33.776L58.0891 43.5038C59.8703 44.6913 59.8703 47.3086 58.0891 48.4961L43.4974 58.2239C41.5037 59.553 38.8333 58.1238 38.8333 55.7277V36.2722C38.8333 33.8761 41.5037 32.4469 43.4974 33.776Z" fill="white"/>
</svg>
