<svg width="49" height="48" viewBox="0 0 49 48" fill="none" xmlns="http://www.w3.org/2000/svg">
<path d="M24.5 8L3.5423 19.4315C2.89977 19.7819 2.5 20.4554 2.5 21.1873V37.6309C2.5 39.149 4.12495 40.1137 5.4577 39.3867L24.5 29L43.5423 39.3867C44.875 40.1137 46.5 39.149 46.5 37.6309V21.1873C46.5 20.4554 46.1002 19.7819 45.4577 19.4315L24.5 8Z" fill="white"/>
<path d="M45.4577 19.4315L24.5 8V15L46.5 27V21.1873C46.5 20.4554 46.1002 19.7819 45.4577 19.4315Z" fill="white"/>
<path d="M46.5 27L24.5 15V22L46.5 34V27Z" fill="#4260FF"/>
<path d="M46.5 34L24.5 22V29L43.5423 39.3867C44.875 40.1137 46.5 39.149 46.5 37.6309V34Z" fill="#FF1F1F"/>
</svg>
