<svg width="48" height="48" viewBox="0 0 48 48" fill="none" xmlns="http://www.w3.org/2000/svg">
<path d="M43.9515 20.4766V31.9462L21.4102 40.4998V29.0301L43.9515 20.4766Z" fill="#E3E3E3"/>
<path d="M4.74902 24.9429V36.4125L21.4101 40.5004V29.0308L4.74902 24.9429Z" fill="#C9C9C9"/>
<path d="M13.08 17.085L4.74902 24.9426L21.4101 29.0305L13.08 17.085Z" fill="#C9C9C9"/>
<path d="M35.6198 8.53076L31.3066 14.7748L43.9508 20.4763L35.6198 8.53076Z" fill="#C9C9C9"/>
<path d="M36.574 8L11.6592 17.2653L21.2882 31.0725L46.2039 21.8072L36.574 8Z" fill="url(#paint0_linear_117_245)"/>
<path d="M11.6592 17.2656L2.0293 26.3477L4.74902 25.3065L12.1465 17.9651L11.6592 17.2656Z" fill="url(#paint1_linear_117_245)"/>
<path d="M36.5744 8L33.4717 9.18939L30.3663 10.3718L27.2609 11.5541L24.152 12.7277L17.9343 15.0741L14.8254 16.2459L11.713 17.409L11.7858 17.1768L21.4323 30.9726L21.2281 30.9086L33.6925 26.2939L39.9261 23.9896L46.1649 21.7012L46.1114 21.8721L43.7195 18.4091L41.3337 14.9426L38.9514 11.4735L36.5744 8ZM36.5744 8L39.0128 11.4305L41.445 14.8646L43.8738 18.3013L46.2963 21.7423C46.3323 21.7932 46.32 21.8633 46.2692 21.8992C46.2613 21.9045 46.2534 21.9089 46.2446 21.9124L46.2429 21.9133L40.0242 24.257L33.8004 26.5858L21.3491 31.2364C21.2728 31.2653 21.1887 31.2364 21.144 31.1724L11.5333 17.3529C11.4851 17.2837 11.5018 17.1882 11.5719 17.1391C11.5824 17.1321 11.5947 17.1259 11.6061 17.1215L14.722 15.9681L17.8414 14.8243L24.0811 12.5375L27.2013 11.3955L30.3251 10.2613L33.4489 9.12715L36.5744 8Z" fill="#754C24"/>
<path d="M12.0027 18.0651L11.5224 17.3604L11.7731 17.3867L2.05029 26.3697L2.01873 26.3198L4.74897 25.3066L2.04065 26.3759C2.02487 26.382 2.00822 26.3741 2.00208 26.3592C1.9977 26.3478 2.00033 26.3347 2.00909 26.3268L2.00997 26.3259L11.5443 17.1448C11.6101 17.0817 11.7144 17.0834 11.7775 17.1492C11.7827 17.1544 11.788 17.1606 11.7924 17.1667L11.795 17.1702L12.2902 17.8653C12.3463 17.9441 12.3279 18.0537 12.249 18.1098C12.1701 18.1659 12.0606 18.1475 12.0045 18.0686C12.0045 18.0677 12.0036 18.066 12.0027 18.0651Z" fill="#754C24"/>
<defs>
<linearGradient id="paint0_linear_117_245" x1="32.7731" y1="26.2371" x2="21.8384" y2="7.1649" gradientUnits="userSpaceOnUse">
<stop stop-color="#F98B4E"/>
<stop offset="1" stop-color="#FF8B1B"/>
</linearGradient>
<linearGradient id="paint1_linear_117_245" x1="2.02966" y1="21.8066" x2="12.147" y2="21.8066" gradientUnits="userSpaceOnUse">
<stop stop-color="#DB7D52"/>
<stop offset="1" stop-color="#DB7D52"/>
</linearGradient>
</defs>
</svg>
