<svg width="48" height="48" viewBox="0 0 48 48" fill="none" xmlns="http://www.w3.org/2000/svg">
<path d="M41.084 21.1187V31.9133L21.2402 39.5873V28.7927L41.084 21.1187Z" fill="#E3E3E3"/>
<path d="M5.55859 24.9458V35.7404L21.2399 39.5878V28.7931L5.55859 24.9458Z" fill="#C9C9C9"/>
<path d="M13.3993 17.5503L5.55859 24.9455L21.2399 28.7928L13.3993 17.5503Z" fill="#C9C9C9"/>
<path d="M32.1162 10.3228L30.5547 15.3769L39.9569 21.5653L32.1162 10.3228Z" fill="#C9C9C9"/>
<path d="M34.6755 9L12.0625 17.72L21.1257 30.7146L43.7386 21.9946L34.6755 9Z" fill="url(#paint0_linear_118_799)"/>
<path d="M12.0623 17.7202L3 26.2678L5.55884 25.2878L12.5218 18.3785L12.0623 17.7202Z" fill="url(#paint1_linear_118_799)"/>
<path d="M3 26.2678L21.1255 30.7148L12.0623 17.7202L3 26.2678Z" fill="url(#paint2_linear_118_799)"/>
<path d="M21.1255 30.715L20.5365 29.9182L19.9533 29.118L18.7877 27.5161L17.6312 25.9083L16.4805 24.2965L15.3364 22.6797C14.9544 22.141 14.5742 21.6015 14.1964 21.0604L13.0596 19.4387L11.9295 17.8128L12.1729 17.8375L11.0378 18.9033L9.8978 19.9641L8.75779 21.0249L7.61366 22.0808L6.46622 23.1342C6.08265 23.484 5.70154 23.8362 5.31549 24.1835L4.16063 25.2278C3.7754 25.5776 3.3877 25.9232 3 26.268C3.36708 25.9009 3.73498 25.5338 4.10619 25.1709L5.2165 24.0787C5.58606 23.7133 5.95891 23.3528 6.33094 22.9907L7.4495 21.9068L8.57054 20.8261L9.6957 19.7497L10.8217 18.674L11.9518 17.6033C12.0161 17.5422 12.1184 17.5447 12.1795 17.609C12.1844 17.6148 12.1894 17.6206 12.1943 17.6264L12.1951 17.628L13.3302 19.2506L14.4595 20.8773C14.8365 21.4192 15.2118 21.962 15.5847 22.5065L16.7065 24.1389L17.8218 25.7755L18.9313 27.4163L20.0317 29.0636L20.5811 29.8877L21.1255 30.715Z" fill="#754C24"/>
<path d="M34.6747 9L31.8594 10.1186L29.0415 11.2314L26.2237 12.3441L23.4025 13.4487L17.7602 15.6561L14.939 16.759L12.1146 17.8536L12.1814 17.6359L21.2602 30.6206L21.0656 30.5612L32.3782 26.2181L38.0354 24.0495L43.6983 21.8948L43.6488 22.0573L41.3977 18.7981L39.1523 15.5357L36.9111 12.2691L34.6747 9ZM34.6747 9L36.9696 12.2278L39.2595 15.4598L41.5453 18.6942L43.8254 21.9328C43.8592 21.9814 43.8476 22.0483 43.799 22.0829C43.7915 22.0878 43.7841 22.092 43.7767 22.0953L43.775 22.0961L38.1319 24.3019L32.483 26.4928L21.1844 30.8681C21.1118 30.8961 21.0326 30.8697 20.9897 30.8087L11.9438 17.8025C11.8985 17.7373 11.9141 17.6474 11.9801 17.6012C11.99 17.5946 12.0008 17.5888 12.0107 17.5847L14.8392 16.4992L17.6711 15.4227L23.3349 13.2705L26.1676 12.1957L29.0027 11.1282L31.8379 10.0608L34.6747 9Z" fill="#754C24"/>
<path d="M3 26.2677C3.75808 26.4401 4.51699 26.6116 5.27425 26.789L7.54684 27.3161C8.3041 27.4918 9.06218 27.6675 9.81861 27.8482L12.0887 28.3868L16.6282 29.4658L21.1634 30.5613L20.996 30.8063L18.7259 27.5603L16.4623 24.3102L14.2046 21.056L11.9543 17.796L12.1539 17.8166L7.58974 22.0557L5.29817 24.165L4.15156 25.2192L3 26.2677ZM3 26.2677L4.11444 25.1804L5.23383 24.0974L7.47343 21.9328L11.9716 17.6235C12.0244 17.5732 12.1077 17.5749 12.158 17.6277C12.1622 17.6326 12.1663 17.6376 12.1704 17.6425L12.1721 17.6442L14.4529 20.8819L16.7263 24.1254L18.994 27.3722L21.255 30.624L21.2558 30.6248C21.3062 30.6965 21.288 30.7955 21.2162 30.845C21.1775 30.8722 21.1305 30.8788 21.0876 30.8689L16.5605 29.7405L12.0376 28.5964L9.77654 28.023C9.02259 27.8333 8.26945 27.6386 7.51715 27.4431L5.25857 26.8591C4.50379 26.6653 3.75231 26.4656 3 26.2677Z" fill="#754C24"/>
<defs>
<linearGradient id="paint0_linear_118_799" x1="31.4231" y1="26.1638" x2="20.9983" y2="8.44832" gradientUnits="userSpaceOnUse">
<stop stop-color="#F98B4E"/>
<stop offset="1" stop-color="#FF8B1B"/>
</linearGradient>
<linearGradient id="paint1_linear_118_799" x1="3" y1="21.9939" x2="12.5219" y2="21.9939" gradientUnits="userSpaceOnUse">
<stop stop-color="#DB7D52"/>
<stop offset="1" stop-color="#DB7D52"/>
</linearGradient>
<linearGradient id="paint2_linear_118_799" x1="13.004" y1="29.0283" x2="13.3258" y2="17.5248" gradientUnits="userSpaceOnUse">
<stop stop-color="#ED6B22"/>
<stop offset="1" stop-color="#F38317"/>
</linearGradient>
</defs>
</svg>
