<svg width="48" height="48" viewBox="0 0 48 48" fill="none" xmlns="http://www.w3.org/2000/svg">
<path d="M33.1984 20.4482V28.3858L14.8174 35.4226V27.4851L33.1984 20.4482Z" fill="#E3E3E3"/>
<path d="M3.28711 24.6558V32.5933L14.8178 35.4226V27.485L3.28711 24.6558Z" fill="#C9C9C9"/>
<path d="M13.1445 15.2356L21.4525 12.5254L34.8991 20.3261L14.4276 28.1631L13.1445 15.2356Z" fill="url(#paint0_linear_118_826)"/>
<path d="M13.1448 15.2354L1.58496 25.0122L14.4278 28.1628L13.1448 15.2354Z" fill="url(#paint1_linear_118_826)"/>
<path d="M13.1445 15.2356L15.2146 14.5366L17.2859 13.8422L19.3573 13.1477L21.43 12.4573C21.4498 12.4507 21.4703 12.4533 21.4875 12.4626L21.4882 12.4632L28.2307 16.3308L34.9613 20.2189C35.0202 20.2533 35.0407 20.3287 35.0063 20.3876C34.9917 20.4127 34.9692 20.4312 34.9441 20.4412H34.9434L29.8285 22.4087L24.7077 24.3597L19.5868 26.3107L17.0247 27.2829L14.4606 28.2498H14.46C14.4123 28.2676 14.3588 28.2438 14.3409 28.1955C14.3383 28.1876 14.3363 28.1797 14.3356 28.1717L14.0307 24.9384L13.8786 23.3214L13.7298 21.7043L13.4349 18.4697L13.1445 15.2356ZM13.1445 15.2356L13.4964 18.4644L13.8429 21.6938L14.0149 23.3088L14.1829 24.9238L14.5195 28.1539L14.3938 28.0765L16.948 27.0845L19.5041 26.0971L24.619 24.1295L29.7339 22.162L34.8548 20.211L34.837 20.4332L28.1209 16.5206L21.4168 12.5876L21.475 12.5935L19.3937 13.2582L17.3111 13.9189L15.2285 14.5796L13.1445 15.2356Z" fill="#754C24"/>
<path d="M13.1442 15.2354L11.717 16.478L10.2858 17.7168L8.85396 18.9541L7.4175 20.1863L4.54457 22.6505L1.66437 25.1061L1.61411 24.8918L8.03719 26.4599L11.2467 27.2515L14.455 28.0498L14.3115 28.1741L14.1587 26.5577L14.0099 24.9407L13.7116 21.7067L13.5641 20.0897L13.4226 18.472L13.2811 16.8543L13.1442 15.2354ZM13.1442 15.2354L13.3287 16.8491L13.5079 18.4634L13.6871 20.0778L13.8604 21.6922L14.2037 24.9215L14.3756 26.5366L14.5429 28.1516C14.5495 28.2151 14.5033 28.272 14.4398 28.2786C14.4265 28.2799 14.4133 28.2792 14.4007 28.2759L14.3994 28.2753L11.1859 27.4982L7.97502 26.7145L1.55525 25.1319H1.55459C1.48845 25.1153 1.44811 25.0485 1.46464 24.9824C1.47126 24.9559 1.48581 24.9335 1.50499 24.9176L4.40503 22.4851L7.31234 20.0613L8.766 18.849L10.2236 17.642L11.6826 16.4364L13.1442 15.2354Z" fill="#754C24"/>
<path d="M33.1982 20.4487V28.3863L44.729 31.2156V23.278L33.1982 20.4487Z" fill="#C9C9C9"/>
<path d="M22.959 24.3569V32.2945L34.4897 35.1238V27.1862L22.959 24.3569Z" fill="#C9C9C9"/>
<path d="M44.7293 23.2778L34.4902 27.1858V35.1234L44.7293 31.2154V23.2778Z" fill="#E3E3E3"/>
<path d="M35.0841 14.624L45.8794 23.172L33.8857 27.6878L35.0841 14.624Z" fill="url(#paint2_linear_118_826)"/>
<path d="M35.084 14.6239L21.4521 12.5254L22.9633 24.8954L33.8856 27.6876L35.084 14.6239Z" fill="url(#paint3_linear_118_826)"/>
<path d="M35.0844 14.624L36.4501 15.6723L37.8125 16.7245L39.1742 17.7774L40.5313 18.8362L43.2455 20.9532C44.1516 21.6575 45.0517 22.3691 45.9544 23.0775C46.0067 23.1185 46.0159 23.1939 45.9749 23.2468C45.961 23.2646 45.9432 23.2772 45.9233 23.2851L45.922 23.2858L42.9267 24.422L39.9295 25.5542L36.9296 26.6792L33.9277 27.7995H33.927C33.8655 27.8227 33.7974 27.7916 33.7749 27.7301C33.7683 27.7129 33.7663 27.6944 33.7683 27.6772L33.9244 26.045L34.0851 24.4127L34.4085 21.1489L34.5712 19.5174L34.7405 17.8865L34.9098 16.2556L35.0844 14.624ZM35.0844 14.624L34.9594 16.2596L34.8291 17.8944L34.6988 19.5293L34.5619 21.1635L34.2862 24.4319L34.1479 26.0661L34.0044 27.6997L33.8444 27.578L36.8396 26.4404L39.8369 25.3075L42.8361 24.1819L45.8374 23.0603L45.805 23.2679C44.9088 22.5517 44.0094 21.8381 43.1166 21.1179L40.4334 18.9612L39.0916 17.8832L37.755 16.7986L36.4184 15.7139L35.0844 14.624Z" fill="#754C24"/>
<path d="M35.0842 14.624L33.3772 14.3826L31.6709 14.1359L28.2583 13.6419L21.4358 12.632L21.5588 12.5123L21.945 15.6035L22.3286 18.6953L22.7122 21.7871C22.8392 22.8182 22.9708 23.8479 23.0925 24.8796L22.9953 24.7692L28.4541 26.1759L31.1835 26.8789L32.5479 27.2307L33.9116 27.5872L33.782 27.6785L34.4188 21.1502L34.7489 17.8871L34.9142 16.2556L35.0842 14.624ZM35.0842 14.624L34.9552 16.2589L34.821 17.8931L34.5518 21.1615L33.9903 27.697C33.9857 27.7539 33.9354 27.7962 33.8779 27.7916C33.8726 27.7909 33.8673 27.7902 33.862 27.7889L33.86 27.7883L32.493 27.4463L31.1273 27.0998L28.3952 26.4067L22.9311 25.0211C22.8776 25.0079 22.8405 24.9629 22.8339 24.9114V24.91C22.7043 23.8796 22.5839 22.8479 22.4589 21.8175L22.0872 18.7244L21.7156 15.6312L21.3465 12.5374V12.5368C21.3392 12.4779 21.3816 12.4243 21.4404 12.4177C21.4504 12.4164 21.4609 12.4171 21.4702 12.4184L28.2788 13.507L31.6822 14.0618L33.3838 14.3403L35.0842 14.624Z" fill="#754C24"/>
<defs>
<linearGradient id="paint0_linear_118_826" x1="26.441" y1="24.8858" x2="18.7654" y2="12.4465" gradientUnits="userSpaceOnUse">
<stop stop-color="#F98B4E"/>
<stop offset="1" stop-color="#FF8B1B"/>
</linearGradient>
<linearGradient id="paint1_linear_118_826" x1="8.6733" y1="26.485" x2="9.12239" y2="15.0497" gradientUnits="userSpaceOnUse">
<stop stop-color="#ED6B22"/>
<stop offset="1" stop-color="#F38317"/>
</linearGradient>
<linearGradient id="paint2_linear_118_826" x1="41.2163" y1="24.9499" x2="34.0583" y2="17.2943" gradientUnits="userSpaceOnUse">
<stop stop-color="#F98B4E"/>
<stop offset="1" stop-color="#FF8B1B"/>
</linearGradient>
<linearGradient id="paint3_linear_118_826" x1="28.976" y1="25.7197" x2="29.5578" y2="12.3122" gradientUnits="userSpaceOnUse">
<stop stop-color="#ED6B22"/>
<stop offset="1" stop-color="#F38317"/>
</linearGradient>
</defs>
</svg>
