<svg width="48" height="48" viewBox="0 0 48 48" fill="none" xmlns="http://www.w3.org/2000/svg">
<path d="M43.6633 19.7808V29.9998L19.999 39.0599V28.8401L43.6633 19.7808Z" fill="#E3E3E3"/>
<path d="M5.15332 25.1982V35.4173L19.9988 39.0597V28.8399L5.15332 25.1982Z" fill="#C9C9C9"/>
<path d="M17.8467 13.0698L28.5429 9.57959L45.8547 19.6229L19.4984 29.7131L17.8467 13.0698Z" fill="url(#paint0_linear_117_260)"/>
<path d="M17.8459 13.0698L2.96289 25.6568L19.4977 29.7132L17.8459 13.0698Z" fill="url(#paint1_linear_117_260)"/>
<path d="M17.8457 13.0697L20.5112 12.1716L23.179 11.2797L25.8468 10.3879L28.5154 9.4999C28.5388 9.49209 28.563 9.49521 28.5833 9.50693L28.5841 9.50771L37.2631 14.4903L45.9272 19.4979C45.9967 19.5385 46.0209 19.6276 45.9803 19.6971C45.9631 19.7268 45.9365 19.7486 45.9069 19.7603H45.9061L39.3209 22.2923L32.7279 24.8046L26.135 27.317L22.8369 28.5697L19.5365 29.8162H19.5357C19.4795 29.8372 19.4162 29.8091 19.3952 29.7529C19.392 29.7435 19.3897 29.7341 19.3889 29.7248L18.9945 25.5622L18.604 21.3988L18.2221 17.2347L17.8457 13.0697ZM17.8457 13.0697L18.2955 17.2269L18.7391 21.3848L19.1749 25.5434L19.6068 29.7021L19.4584 29.6108L22.7471 28.3346L26.0381 27.0648L32.6233 24.5321L39.2085 21.9994L45.8014 19.4862L45.7803 19.7486L37.1326 14.7129L28.499 9.65297L28.5677 9.66L25.889 10.5167L23.2086 11.3696L20.5283 12.2224L17.8457 13.0697Z" fill="#754C24"/>
<path d="M17.8457 13.0698L16.0057 14.6677L14.1618 16.2609L12.3164 17.8525L10.4663 19.4379L6.76601 22.6086L3.05326 25.7646L2.99625 25.5201L7.13228 26.5252L9.2003 27.0282C9.8899 27.1945 10.5787 27.3656 11.2668 27.5366L19.5295 29.5827L19.3623 29.7272L19.1624 27.6459L18.9695 25.5638L18.5837 21.4005L18.3931 19.3184L18.2088 17.2355L18.0245 15.1527L17.8457 13.0698ZM17.8457 13.0698L18.08 15.1472L18.3088 17.2254L18.5376 19.3036L18.7594 21.3825L19.1991 25.5404L19.4193 27.6194L19.6325 29.6991C19.6404 29.7733 19.5865 29.8397 19.5123 29.8467C19.4967 29.8483 19.4818 29.8475 19.467 29.8436H19.4654L11.1933 27.8326C10.5037 27.6654 9.81493 27.4983 9.12611 27.3265L7.06043 26.815L2.92908 25.7919H2.9283C2.85255 25.7731 2.80725 25.6966 2.82521 25.6216C2.83302 25.592 2.84942 25.5662 2.87129 25.5474L6.60044 22.4103L10.3413 19.2872L12.2117 17.726L14.0876 16.1711L15.9643 14.6169L17.8457 13.0698Z" fill="#754C24"/>
<defs>
<linearGradient id="paint0_linear_117_260" x1="34.9653" y1="25.4936" x2="25.0828" y2="9.47834" gradientUnits="userSpaceOnUse">
<stop stop-color="#F98B4E"/>
<stop offset="1" stop-color="#FF8B1B"/>
</linearGradient>
<linearGradient id="paint1_linear_117_260" x1="12.0889" y1="27.553" x2="12.6671" y2="12.8308" gradientUnits="userSpaceOnUse">
<stop stop-color="#ED6B22"/>
<stop offset="1" stop-color="#F38317"/>
</linearGradient>
</defs>
</svg>
