<svg width="48" height="48" viewBox="0 0 48 48" fill="none" xmlns="http://www.w3.org/2000/svg">
<path d="M4.83594 26.3975L21.994 19.6756L26.271 11.4536L9.11296 18.1756L4.83594 26.3975Z" fill="url(#paint0_linear_117_286)"/>
<path d="M4.83594 26.3974L6.97182 25.534L9.10967 24.6751L11.2475 23.8163L13.3873 22.9641L17.6683 21.2609L19.8088 20.4106L21.9519 19.5669L21.8914 19.6208L26.154 11.3917L26.3184 11.5745L17.7334 14.921L15.587 15.7575L13.4386 16.588L9.14057 18.2465L9.18069 18.2103L8.10025 20.26L7.01324 22.3065L5.92624 24.3529L4.83594 26.3974ZM4.83594 26.3974L5.88283 24.3306L6.93433 22.2657L7.98583 20.2009L9.04457 18.1399C9.05311 18.1228 9.06758 18.1104 9.08402 18.1038L9.08468 18.1031L13.3656 16.3999L15.5068 15.5497L17.6499 14.706L26.223 11.3299C26.2907 11.3036 26.367 11.3364 26.3933 11.4042C26.4078 11.441 26.4045 11.4804 26.3874 11.5133L22.0966 19.728V19.7287C22.0834 19.7543 22.0611 19.7728 22.0367 19.7826L19.8903 20.6191L17.7413 21.449L13.4432 23.1074L11.2936 23.936L9.14189 24.758L6.99023 25.58L4.83594 26.3974Z" fill="#754C24"/>
<path d="M21.6708 20.774L15.9747 15.9663L10.2785 17.7806L6.33887 25.3535V34.4902L10.2785 35.5252L21.6708 38.5186L25.6098 39.5537V30.417L21.6708 20.774Z" fill="#C9C9C9"/>
<path d="M41.4134 24.2256V33.3622L25.6094 39.5535V30.4169L41.4134 24.2256Z" fill="#E3E3E3"/>
<path d="M38.6395 14.7036L21.4814 21.4262L25.7585 31.8959L42.9165 25.1732L38.6395 14.7036Z" fill="url(#paint1_linear_117_286)"/>
<path d="M32.4549 9.48438L15.2969 16.2063L21.4809 21.4264L38.639 14.7037L32.4549 9.48438Z" fill="url(#paint2_linear_117_286)"/>
<path d="M26.2713 11.4539L9.11328 18.1759L15.2973 16.2063L32.4554 9.48438L26.2713 11.4539Z" fill="url(#paint3_linear_117_286)"/>
<path d="M38.6388 14.7036L36.503 15.5657L34.3651 16.4232L32.2273 17.2807L30.0874 18.1336L25.8058 19.8349L23.6653 20.6858L21.5229 21.5321L21.5867 21.3835L25.8801 31.8465L25.7105 31.7742L34.2947 28.4264L38.5882 26.7554L42.8856 25.0956L42.8383 25.2055L41.7815 22.583L40.7307 19.9578L39.6824 17.332L38.6388 14.7036ZM38.6388 14.7036L39.7337 17.3103L40.824 19.919L41.9117 22.529L42.9934 25.141C43.0112 25.1838 42.9908 25.2324 42.9481 25.2502H42.9474L42.9461 25.2508L38.6645 26.952L34.3789 28.6427L25.8052 32.0175C25.7381 32.0438 25.6625 32.0116 25.6355 31.9452L21.3756 21.469V21.4683C21.3519 21.4105 21.3802 21.3447 21.4374 21.321C21.438 21.321 21.4387 21.3204 21.4394 21.3204L23.5864 20.4859L25.7354 19.656L30.0329 17.9962L32.1825 17.1683L34.3342 16.345L36.4859 15.5217L38.6388 14.7036Z" fill="#754C24"/>
<path d="M32.4554 9.48438L30.3201 10.3485L28.1829 11.2079L26.0457 12.0668L23.9053 12.919L19.625 14.6228L17.4832 15.4718L15.34 16.3162L15.3729 16.1182L21.5662 21.3264L21.4334 21.3047L30.0183 17.9588L32.1647 17.1224L34.3137 16.2938L38.6124 14.6367L38.5921 14.7603L37.0546 13.4451L35.5204 12.1266L33.9862 10.8081L32.4554 9.48438ZM32.4554 9.48438L34.0165 10.7713L35.5743 12.0622L37.1322 13.353L38.6868 14.6478C38.7177 14.6735 38.7216 14.7195 38.696 14.7504C38.6881 14.7603 38.6782 14.7669 38.667 14.7715L38.6657 14.7721L34.3854 16.476L32.2449 17.3282L30.1018 18.1726L21.5287 21.5487C21.482 21.5671 21.4314 21.5566 21.3959 21.527L15.221 16.2964C15.1717 16.255 15.1658 16.1814 15.2072 16.132C15.2204 16.1169 15.2368 16.1057 15.2539 16.0985L17.4003 15.262L19.548 14.4302L23.8467 12.773L25.9958 11.9445L28.1481 11.1231L30.3004 10.3018L32.4554 9.48438Z" fill="#754C24"/>
<path d="M32.455 9.48422L29.5642 10.6449L26.6721 11.8009L23.7793 12.9557L20.8839 14.1038L17.9885 15.252L16.5405 15.8261L15.8164 16.1135L15.4548 16.2568L15.364 16.293L15.3416 16.3022L15.3357 16.3042L15.3232 16.3081L15.3114 16.3121L15.2654 16.3272L15.0799 16.387L9.14773 18.2888C9.08592 18.3085 9.0195 18.2743 8.99977 18.2125C8.9807 18.1533 9.01161 18.0895 9.06882 18.0672H9.06948L14.8669 15.7866L17.7656 14.6464L20.6669 13.5127L23.5689 12.3803L25.0195 11.8141L25.7449 11.5313L26.1078 11.3899L26.1986 11.3544L26.221 11.3459L26.2269 11.3439L26.24 11.3393L26.2519 11.3354L26.2985 11.3209L26.484 11.2624L32.4221 9.37966H32.4228C32.4602 9.36783 32.4997 9.37703 32.528 9.4007L38.689 14.647L38.6897 14.6477C38.6989 14.6556 38.7061 14.6661 38.7107 14.6766L39.7681 17.2991L40.8196 19.9236L41.8711 22.5481L42.918 25.1745L41.8264 22.5665L40.7394 19.9565L39.6524 17.3465L38.5713 14.7338L38.5923 14.7634L32.3853 9.57103L32.4905 9.59207L26.557 11.4906L26.3715 11.5497L26.3255 11.5649L26.3137 11.5688C26.315 11.5682 26.3025 11.5728 26.315 11.5682L26.3091 11.5701L26.2867 11.5793L26.196 11.6148L25.8336 11.7575L25.109 12.0423L23.6596 12.6124L20.7609 13.7527L17.8616 14.891L14.9596 16.0234L9.15628 18.2881L9.07737 18.0659L15.0168 16.1865L15.2022 16.1279L15.2489 16.1135L15.2608 16.1095C15.2601 16.1102 15.2713 16.1062 15.2601 16.1102L15.266 16.1082L15.289 16.0997L15.3798 16.0648L15.7428 15.9241L16.4688 15.6433L17.9214 15.081L20.826 13.9565L23.7306 12.8321L26.6379 11.7141L29.5458 10.5975L32.455 9.48422Z" fill="#754C24"/>
<defs>
<linearGradient id="paint0_linear_117_286" x1="4.83594" y1="18.9256" x2="26.2709" y2="18.9256" gradientUnits="userSpaceOnUse">
<stop stop-color="#EE9E5F"/>
<stop offset="1" stop-color="#FAC488"/>
</linearGradient>
<linearGradient id="paint1_linear_117_286" x1="34.5827" y1="28.2928" x2="25.7627" y2="15.4824" gradientUnits="userSpaceOnUse">
<stop stop-color="#F98B4E"/>
<stop offset="1" stop-color="#FF8B1B"/>
</linearGradient>
<linearGradient id="paint2_linear_117_286" x1="29.5637" y1="18.9236" x2="24.7347" y2="7.92799" gradientUnits="userSpaceOnUse">
<stop stop-color="#F98B4E"/>
<stop offset="1" stop-color="#FF8B1B"/>
</linearGradient>
<linearGradient id="paint3_linear_117_286" x1="9.11324" y1="13.8301" x2="32.4553" y2="13.8301" gradientUnits="userSpaceOnUse">
<stop stop-color="#EE9E5F"/>
<stop offset="1" stop-color="#FAC488"/>
</linearGradient>
</defs>
</svg>
