<svg width="48" height="48" viewBox="0 0 48 48" fill="none" xmlns="http://www.w3.org/2000/svg">
<path d="M40.3545 19.6597V28.207L22.9009 34.6962L17.418 36.7344V28.1871L40.3545 19.6597Z" fill="#E3E3E3"/>
<path d="M5.00195 25.1401V33.6875L17.4185 36.7341V28.1868L5.00195 25.1401Z" fill="#C9C9C9"/>
<path d="M11.2106 19.2842L5.00195 25.1403L17.4185 28.1869L11.2106 19.2842Z" fill="#C9C9C9"/>
<path d="M34.1473 10.7573L30.9326 15.4106L40.3552 19.6593L34.1473 10.7573Z" fill="#C9C9C9"/>
<path d="M34.8577 10.3613L10.1514 19.4186L17.3278 29.7079L42.0334 20.6513L34.8577 10.3613Z" fill="url(#paint0_linear_117_314)"/>
<path d="M10.152 19.4189L2.97559 26.1873L5.0024 25.4118L10.5159 19.9402L10.152 19.4189Z" fill="url(#paint1_linear_117_314)"/>
<path d="M32.7139 23.3428V30.9501L43.7652 33.662V26.054L32.7139 23.3428Z" fill="#C9C9C9"/>
<path d="M22.9014 27.0874V34.6954L33.9527 37.4066V29.7993L22.9014 27.0874Z" fill="#C9C9C9"/>
<path d="M43.765 26.0537L33.9521 29.7997V37.407L43.765 33.6617V26.0537Z" fill="#E3E3E3"/>
<path d="M34.8576 10.3613L28.6974 12.6702L25.6166 13.8217L22.5329 14.9669L16.3656 17.2551L13.2812 18.3988L10.1947 19.5347L10.2538 19.346L17.4445 29.626L17.2786 29.574L29.6374 25.0618L32.7275 23.9337L35.8197 22.8135L42.0055 20.5744L41.9664 20.6983L40.1838 18.1182L38.407 15.5338L36.6301 12.9493L34.8576 10.3613ZM34.8576 10.3613L36.6736 12.9187L38.4846 15.4796L40.2956 18.0406L42.101 20.6051C42.1266 20.6421 42.1181 20.6927 42.081 20.7183C42.0753 20.7226 42.0689 20.7254 42.0625 20.7283L42.0618 20.729L35.8945 23.0179L32.8101 24.1616L29.7236 25.2975L17.3769 29.8425C17.3149 29.8653 17.2473 29.8418 17.2109 29.7905L10.0487 19.4905C10.0096 19.4343 10.0231 19.3566 10.0794 19.3168C10.0879 19.3103 10.0986 19.3054 10.1079 19.3018L13.1979 18.1737L16.2901 17.0528L22.4752 14.813L25.5682 13.6935L28.6639 12.5811L34.8576 10.3613Z" fill="#754C24"/>
<path d="M10.3988 20.0217L10.0413 19.4961L10.2449 19.5175L2.99301 26.2054L2.96737 26.1648L5.00273 25.412L2.98517 26.2104C2.97236 26.2154 2.95882 26.209 2.95384 26.1968C2.95028 26.1876 2.95242 26.1769 2.95954 26.1705L2.96025 26.1698L10.0605 19.3202C10.1139 19.2689 10.1987 19.2704 10.2499 19.3238C10.2542 19.3281 10.2585 19.333 10.262 19.338L10.2642 19.3409L10.6338 19.8579C10.6794 19.922 10.6644 20.011 10.601 20.0566C10.5369 20.1022 10.4479 20.0872 10.4023 20.0231C10.3995 20.0238 10.3988 20.0224 10.3988 20.0217Z" fill="#754C24"/>
<path d="M34.5227 17.7612L44.869 25.9532L33.374 30.281L34.5227 17.7612Z" fill="url(#paint2_linear_117_314)"/>
<path d="M34.5224 17.7612L21.3203 15.3242L22.9056 27.6054L33.3736 30.281L34.5224 17.7612Z" fill="url(#paint3_linear_117_314)"/>
<path d="M34.5229 17.7612L35.8333 18.7632L37.1401 19.7702L38.4469 20.7772L39.7487 21.7906L42.3524 23.8175C43.2212 24.4912 44.0844 25.1734 44.9504 25.8514C45.0066 25.8955 45.0166 25.9767 44.9724 26.033C44.9575 26.0522 44.9382 26.0657 44.9169 26.0743L44.9155 26.075L42.0447 27.1646L39.1726 28.2499L36.2976 29.3282L33.4205 30.4007H33.4198C33.3535 30.4249 33.2802 30.3914 33.256 30.3259C33.2488 30.3074 33.2467 30.2874 33.2488 30.2689L33.3991 28.7043L33.5551 27.1404L33.8677 24.0126L34.0251 22.4487L34.1896 20.8855L34.3541 19.3223L34.5229 17.7612ZM34.5229 17.7612L34.4061 19.3287L34.2836 20.8955L34.1611 22.4622L34.0315 24.0282L33.7701 27.1603L33.6384 28.7264L33.5017 30.2917L33.3293 30.1607L36.1993 29.0689L39.0715 27.9829L41.9465 26.904L44.8229 25.83L44.788 26.0536C43.9291 25.3664 43.0674 24.6827 42.2121 23.9919L39.6426 21.9224L38.3579 20.8876L37.0781 19.8464L35.7984 18.8053L34.5229 17.7612Z" fill="#754C24"/>
<path d="M34.5224 17.7611L32.868 17.4791L31.2144 17.1914L27.9078 16.6152L21.299 15.4387L21.435 15.3098C21.5746 16.3325 21.7049 17.3559 21.8402 18.3785L22.2426 21.448L22.645 24.5174C22.7781 25.5407 22.9163 26.5634 23.0445 27.5875L22.9398 27.4693L28.1713 28.8181L30.7871 29.4925L32.0946 29.8301L33.4014 30.1726L33.2619 30.2709L33.8765 24.0146L34.1962 20.8875L34.3565 19.3243L34.5224 17.7611ZM34.5224 17.7611L34.4013 19.3278L34.2746 20.8946L34.0203 24.0274L33.4869 30.2909C33.4819 30.3521 33.4278 30.3977 33.3658 30.3927C33.3601 30.392 33.3544 30.3913 33.3487 30.3899L33.3466 30.3891L32.0362 30.0622L30.7273 29.7304L28.1087 29.0666L22.8714 27.7399C22.8145 27.7256 22.7746 27.6779 22.7667 27.6231V27.6217C22.6307 26.599 22.5047 25.5749 22.3729 24.5508L21.9827 21.48L21.5924 18.4092C21.4635 17.3851 21.3296 16.3624 21.205 15.3376V15.3362C21.1971 15.2728 21.2427 15.2151 21.3054 15.2073C21.3175 15.2059 21.3296 15.2066 21.341 15.2087L27.9342 16.4685L31.2286 17.1102L32.8759 17.4321L34.5224 17.7611Z" fill="#754C24"/>
<defs>
<linearGradient id="paint0_linear_117_314" x1="29.6378" y1="25.6533" x2="20.9315" y2="8.93934" gradientUnits="userSpaceOnUse">
<stop stop-color="#F98B4E"/>
<stop offset="1" stop-color="#FF8B1B"/>
</linearGradient>
<linearGradient id="paint1_linear_117_314" x1="2.97581" y1="22.803" x2="10.5157" y2="22.803" gradientUnits="userSpaceOnUse">
<stop stop-color="#DB7D52"/>
<stop offset="1" stop-color="#DB7D52"/>
</linearGradient>
<linearGradient id="paint2_linear_117_314" x1="40.3998" y1="27.6572" x2="33.5399" y2="20.3199" gradientUnits="userSpaceOnUse">
<stop stop-color="#F98B4E"/>
<stop offset="1" stop-color="#FF8B1B"/>
</linearGradient>
<linearGradient id="paint3_linear_117_314" x1="28.6069" y1="28.3398" x2="29.1915" y2="15.1148" gradientUnits="userSpaceOnUse">
<stop stop-color="#ED6B22"/>
<stop offset="1" stop-color="#F38317"/>
</linearGradient>
</defs>
</svg>
