<svg width="48" height="48" viewBox="0 0 48 48" fill="none" xmlns="http://www.w3.org/2000/svg">
<path d="M24.9092 10.6079V26.1904L43.415 32.1017V21.5118L24.9092 10.6079Z" fill="#C9C9C9"/>
<path d="M30.1738 8.34424L24.9092 10.6079L43.415 21.5118L30.1738 8.34424Z" fill="#C9C9C9"/>
<path d="M43.4147 21.5117V32.1016L22.6016 39.9997V29.4098L43.4147 21.5117Z" fill="#E3E3E3"/>
<path d="M4.09668 18.5059V34.0884L22.6025 39.9996V29.4098L4.09668 18.5059Z" fill="#C9C9C9"/>
<path d="M9.36047 16.2432L4.09668 18.506L22.6025 29.4099L9.36047 16.2432Z" fill="#C9C9C9"/>
<path d="M30.2442 8.34424L8.30371 16.6705L22.2628 30.551L44.2041 22.2248L30.2442 8.34424Z" fill="url(#paint0_linear_117_357)"/>
<path d="M30.2435 8.34424L24.7742 10.4687L19.3024 12.5859L8.34912 16.7943L8.39525 16.5774L15.3869 23.5059L22.3762 30.4369L22.2046 30.4005L33.1805 26.2519L38.6685 24.1777L44.1613 22.1164L44.12 22.3082L37.1712 15.3367L33.7049 11.8429L30.2435 8.34424ZM30.2435 8.34424L33.7616 11.7863L37.2748 15.2323L44.2851 22.1414C44.3312 22.1868 44.3312 22.2604 44.2859 22.3057C44.2738 22.3179 44.26 22.3268 44.2455 22.3324L44.2438 22.3333L38.7664 24.435L33.2841 26.5239L22.3187 30.7016C22.2572 30.725 22.1908 30.708 22.1471 30.6651L15.1765 23.7156L8.2083 16.7635L8.20749 16.7627C8.1565 16.7117 8.15569 16.6284 8.20749 16.5766C8.22125 16.5628 8.23743 16.5531 8.25443 16.5467L19.2417 12.4289L24.7402 10.3829L30.2435 8.34424Z" fill="#754C24"/>
<path fill-rule="evenodd" clip-rule="evenodd" d="M8.47258 16.5964C8.51343 16.69 8.47065 16.799 8.37704 16.8398L2.87613 19.2403C2.78252 19.2811 2.67352 19.2383 2.63267 19.1447C2.59182 19.0511 2.63459 18.9421 2.7282 18.9013L8.22912 16.5008C8.32273 16.46 8.43173 16.5028 8.47258 16.5964Z" fill="#754C24"/>
<defs>
<linearGradient id="paint0_linear_117_357" x1="30.2462" y1="25.897" x2="20.1435" y2="6.87079" gradientUnits="userSpaceOnUse">
<stop stop-color="#F98B4E"/>
<stop offset="1" stop-color="#FF8B1B"/>
</linearGradient>
</defs>
</svg>
