<svg width="48" height="48" viewBox="0 0 48 48" fill="none" xmlns="http://www.w3.org/2000/svg">
<path d="M26.3726 12.8462V24.8243L4.35156 33.3403V21.3622L26.3726 12.8462Z" fill="#E3E3E3"/>
<path d="M43.775 17.1147V29.0938L21.7539 37.6098V25.6317L43.775 17.1147Z" fill="#E3E3E3"/>
<path d="M4.35156 21.3623V33.3404L21.7535 37.6099V25.6318L4.35156 21.3623Z" fill="#C9C9C9"/>
<path d="M26.7397 11.8311L46.9034 16.7779L21.3864 26.646L1.22266 21.6992L26.7397 11.8311Z" fill="url(#paint0_linear_118_649)"/>
<path d="M21.3857 24.8149V26.6457L46.9027 16.7776V15.0978V14.9468L21.3857 24.8149Z" fill="#C9C9C9"/>
<path d="M1.22266 19.8682V21.699L21.3864 26.6458V24.815L1.22266 19.8682Z" fill="#B0B0B0"/>
<path d="M26.7397 10L46.9034 14.9469L21.3864 24.815L1.22266 19.8681L26.7397 10Z" fill="url(#paint1_linear_118_649)"/>
<path d="M26.7392 10L31.7905 11.1955L36.8399 12.3984L41.8874 13.6095L46.9331 14.8251C47.0009 14.8416 47.043 14.9093 47.0265 14.9771C47.0164 15.0183 46.9872 15.0503 46.9505 15.065L46.9487 15.0659L40.5793 17.5594L34.2035 20.0347L21.4518 24.9861C21.4152 24.9999 21.3777 25.0017 21.342 24.9935L1.18563 20.0182H1.18471C1.10232 19.9981 1.05106 19.9139 1.07212 19.8315C1.08493 19.7811 1.12155 19.7418 1.16732 19.7244L13.9464 14.8434L20.3415 12.4167L26.7392 10ZM26.7392 10L20.3799 12.5174L14.016 15.0247L1.27808 20.0118L1.25886 19.718L21.429 24.6374L21.3191 24.6447L34.0845 19.728L40.4667 17.2702L46.8563 14.8297L46.8718 15.0704L41.8362 13.8127L36.8014 12.5494L31.7694 11.2779L26.7392 10Z" fill="#754C24"/>
<defs>
<linearGradient id="paint0_linear_118_649" x1="1.22299" y1="19.2386" x2="46.903" y2="19.2386" gradientUnits="userSpaceOnUse">
<stop stop-color="#EE9E5F"/>
<stop offset="1" stop-color="#FAC488"/>
</linearGradient>
<linearGradient id="paint1_linear_118_649" x1="29.1429" y1="21.7101" x2="24.9387" y2="6.60869" gradientUnits="userSpaceOnUse">
<stop stop-color="#F98B4E"/>
<stop offset="1" stop-color="#FF8B1B"/>
</linearGradient>
</defs>
</svg>
