<svg width="48" height="48" viewBox="0 0 48 48" fill="none" xmlns="http://www.w3.org/2000/svg">
<path d="M22.9512 9.56055V25.6548L42.0655 31.7601V20.8217L22.9512 9.56055Z" fill="#C9C9C9"/>
<path d="M28.3886 7.22266L22.9512 9.56064L42.0655 20.8218L28.3886 7.22266Z" fill="#C9C9C9"/>
<path d="M42.0659 20.8218V31.7602L20.5693 39.9177V28.9792L42.0659 20.8218Z" fill="#E3E3E3"/>
<path d="M7.69434 16.522L7.71858 35.8127L20.5696 39.9177V28.9793L7.69434 16.522Z" fill="#C9C9C9"/>
<path d="M28.4616 7.22266L5.7998 15.8223L20.2173 30.1578L42.8791 21.559L28.4616 7.22266Z" fill="url(#paint0_linear_118_672)"/>
<path d="M28.4617 7.22266L22.8127 9.41687L17.1613 11.6027L5.84834 15.9494L5.89599 15.7253L13.1172 22.8814L20.336 30.04L20.1588 30.0024L31.4951 25.7176L37.1633 23.5752L42.8365 21.4462L42.7947 21.6443L35.6178 14.4439L32.0376 10.8354L28.4617 7.22266ZM28.4617 7.22266L32.0953 10.7777L35.7239 14.3378L42.9644 21.4738C43.0121 21.5206 43.0121 21.5966 42.9652 21.6434C42.9527 21.656 42.9385 21.6652 42.9235 21.671L42.9218 21.6719L37.2645 23.8427L31.6021 26.0001L20.2775 30.315C20.214 30.3392 20.1454 30.3217 20.1003 30.2774L12.9008 23.0996L5.70373 15.9193L5.7029 15.9184C5.65023 15.8658 5.6494 15.7797 5.7029 15.7262C5.71711 15.712 5.73382 15.7019 5.75138 15.6952L17.0994 11.4422L22.7785 9.3291L28.4617 7.22266Z" fill="#754C24"/>
<defs>
<linearGradient id="paint0_linear_118_672" x1="28.4628" y1="25.3512" x2="18.029" y2="5.70057" gradientUnits="userSpaceOnUse">
<stop stop-color="#F98B4E"/>
<stop offset="1" stop-color="#FF8B1B"/>
</linearGradient>
</defs>
</svg>
