<svg width="92" height="92" viewBox="0 0 92 92" fill="none" xmlns="http://www.w3.org/2000/svg">
<path fill-rule="evenodd" clip-rule="evenodd" d="M15.3333 3.8335C11.0991 3.8335 7.66663 7.26598 7.66663 11.5002V72.8335C7.66663 79.1848 12.8154 84.3335 19.1666 84.3335H80.5C84.7341 84.3335 88.1666 80.901 88.1666 76.6668V57.5002C88.1666 53.266 84.7341 49.8335 80.5 49.8335H69H53.6666H42.1666V38.3335V23.0002V11.5002C42.1666 7.26598 38.7341 3.8335 34.5 3.8335H15.3333ZM34.5 49.8335H26.8333C24.7162 49.8335 23 51.5497 23 53.6668C23 55.7839 24.7162 57.5002 26.8333 57.5002H34.5V65.1668C34.5 67.2839 36.2162 69.0002 38.3333 69.0002C40.4504 69.0002 42.1666 67.2839 42.1666 65.1668V57.5002H49.8333V65.1668C49.8333 67.2839 51.5495 69.0002 53.6666 69.0002C55.7837 69.0002 57.5 67.2839 57.5 65.1668V57.5002H65.1666V65.1668C65.1666 67.2839 66.8829 69.0002 69 69.0002C71.1171 69.0002 72.8333 67.2839 72.8333 65.1668V57.5002H80.5V76.6668H19.1666C17.0495 76.6668 15.3333 74.9506 15.3333 72.8335V11.5002H34.5V19.1668H26.8333C24.7162 19.1668 23 20.8831 23 23.0002C23 25.1173 24.7162 26.8335 26.8333 26.8335H34.5V34.5002H26.8333C24.7162 34.5002 23 36.2164 23 38.3335C23 40.4506 24.7162 42.1668 26.8333 42.1668H34.5V49.8335Z" fill="url(#paint0_linear_137_1378)"/>
<defs>
<linearGradient id="paint0_linear_137_1378" x1="47.9166" y1="3.8335" x2="47.9166" y2="84.3335" gradientUnits="userSpaceOnUse">
<stop stop-color="#FF541B"/>
<stop offset="1" stop-color="#FFA21B"/>
</linearGradient>
</defs>
</svg>
