<svg width="93" height="92" viewBox="0 0 93 92" fill="none" xmlns="http://www.w3.org/2000/svg">
<path fill-rule="evenodd" clip-rule="evenodd" d="M23.6666 15.3332C19.4324 15.3332 15.9999 18.7657 15.9999 22.9998V68.9998C15.9999 73.234 19.4324 76.6665 23.6666 76.6665H69.6666C73.9008 76.6665 77.3333 73.234 77.3333 68.9998V22.9998C77.3333 18.7657 73.9008 15.3332 69.6666 15.3332H23.6666ZM8.33325 22.9998C8.33325 14.5315 15.1982 7.6665 23.6666 7.6665H69.6666C78.1349 7.6665 84.9999 14.5315 84.9999 22.9998V68.9998C84.9999 77.4682 78.1349 84.3332 69.6666 84.3332H23.6666C15.1982 84.3332 8.33325 77.4682 8.33325 68.9998V22.9998ZM35.1666 22.9998C37.2837 22.9998 38.9999 24.7161 38.9999 26.8332V30.6665L54.3333 30.6665V26.8332C54.3333 24.7161 56.0495 22.9998 58.1666 22.9998C60.2837 22.9998 61.9999 24.7161 61.9999 26.8332V30.6665H65.8333C67.9503 30.6665 69.6666 32.3827 69.6666 34.4998C69.6666 36.6169 67.9503 38.3332 65.8333 38.3332H61.9999V53.6665H65.8333C67.9503 53.6665 69.6666 55.3827 69.6666 57.4998C69.6666 59.6169 67.9503 61.3332 65.8333 61.3332H61.9999V65.1665C61.9999 67.2836 60.2837 68.9998 58.1666 68.9998C56.0495 68.9998 54.3333 67.2836 54.3333 65.1665V61.3332L38.9999 61.3332V65.1665C38.9999 67.2836 37.2837 68.9998 35.1666 68.9998C33.0495 68.9998 31.3333 67.2836 31.3333 65.1665V61.3332H27.4999C25.3828 61.3332 23.6666 59.6169 23.6666 57.4998C23.6666 55.3827 25.3828 53.6665 27.4999 53.6665H31.3333V38.3332H27.4999C25.3828 38.3332 23.6666 36.6169 23.6666 34.4998C23.6666 32.3827 25.3828 30.6665 27.4999 30.6665H31.3333V26.8332C31.3333 24.7161 33.0495 22.9998 35.1666 22.9998ZM54.3333 53.6665V38.3332L38.9999 38.3332V53.6665H54.3333Z" fill="url(#paint0_linear_137_1393)"/>
<defs>
<linearGradient id="paint0_linear_137_1393" x1="46.6666" y1="7.6665" x2="46.6666" y2="84.3332" gradientUnits="userSpaceOnUse">
<stop stop-color="#FF541B"/>
<stop offset="1" stop-color="#FFA21B"/>
</linearGradient>
</defs>
</svg>
