<svg width="93" height="92" viewBox="0 0 93 92" fill="none" xmlns="http://www.w3.org/2000/svg">
<path d="M77.8372 21.3084L46.3333 7.30664L14.8294 21.3084C10.6764 23.1542 8 27.2725 8 31.8172V34.5015C8 36.6186 9.71624 38.3349 11.8333 38.3349C13.9504 38.3349 15.6667 36.6186 15.6667 34.5015V31.8172C15.6667 30.3023 16.5588 28.9295 17.9431 28.3143L46.3333 15.6964L74.7235 28.3143C76.1078 28.9295 77 30.3023 77 31.8172V34.5015C77 36.6186 78.7162 38.3349 80.8333 38.3349C82.9504 38.3349 84.6667 36.6186 84.6667 34.5015V31.8172C84.6667 27.2725 81.9902 23.1541 77.8372 21.3084Z" fill="url(#paint0_linear_137_1407)"/>
<path fill-rule="evenodd" clip-rule="evenodd" d="M46.3333 29.0788L62.1317 44.8772C64.2884 47.0338 65.5 49.9589 65.5 53.0089V72.8333C65.5 79.1845 60.3513 84.3333 54 84.3333H38.6667C32.3154 84.3333 27.1667 79.1845 27.1667 72.8333V53.0089C27.1667 49.9589 28.3783 47.0338 30.5349 44.8772L46.3333 29.0788ZM46.3328 53.6698C50.4679 53.6698 54.6032 52.5544 57.5353 51.527C57.3446 51.0721 57.0661 50.6539 56.7106 50.2983L46.3333 39.9211L35.9561 50.2983C35.6004 50.654 35.3219 51.0723 35.1312 51.5273C38.0633 52.5547 42.1981 53.6698 46.3328 53.6698ZM46.3333 61.3364C42.0563 61.3364 37.7793 60.1434 34.8333 59.0885V72.8333C34.8333 74.9503 36.5496 76.6666 38.6667 76.6666H54C56.1171 76.6666 57.8333 74.9503 57.8333 72.8333V59.0884C54.8874 60.1434 50.6104 61.3364 46.3333 61.3364Z" fill="url(#paint1_linear_137_1407)"/>
<defs>
<linearGradient id="paint0_linear_137_1407" x1="46.3333" y1="7.30664" x2="46.3333" y2="84.3333" gradientUnits="userSpaceOnUse">
<stop stop-color="#FF541B"/>
<stop offset="1" stop-color="#FFA21B"/>
</linearGradient>
<linearGradient id="paint1_linear_137_1407" x1="46.3333" y1="7.30664" x2="46.3333" y2="84.3333" gradientUnits="userSpaceOnUse">
<stop stop-color="#FF541B"/>
<stop offset="1" stop-color="#FFA21B"/>
</linearGradient>
</defs>
</svg>
