<svg width="92" height="92" viewBox="0 0 92 92" fill="none" xmlns="http://www.w3.org/2000/svg">
<path fill-rule="evenodd" clip-rule="evenodd" d="M46 7.46094L76.4699 17.6176C81.1659 19.1829 84.3333 23.5775 84.3333 28.5274V63.4758C84.3333 68.4258 81.1658 72.8204 76.4699 74.3857L46 84.5423L15.53 74.3857C10.8341 72.8203 7.66663 68.4257 7.66663 63.4758V28.5274C7.66663 23.5775 10.8341 19.1829 15.53 17.6176L46 7.46094ZM46 15.5423L17.9544 24.8908C17.9271 24.8999 17.8999 24.9093 17.8729 24.919L45.9993 34.2945L74.1264 24.9188C74.1092 24.9126 74.0919 24.9066 74.0746 24.9007C74.0649 24.8973 74.0552 24.8941 74.0455 24.8908L46 15.5423ZM15.3333 63.4758V32.1539L42.1666 41.0983V75.1832L17.9544 67.1124C16.3891 66.5907 15.3333 65.1258 15.3333 63.4758ZM49.8333 75.1832L74.0455 67.1124C75.6108 66.5907 76.6666 65.1258 76.6666 63.4758V32.1534L49.8333 41.0979V75.1832Z" fill="url(#paint0_linear_137_1417)"/>
<defs>
<linearGradient id="paint0_linear_137_1417" x1="46" y1="7.46094" x2="46" y2="84.5423" gradientUnits="userSpaceOnUse">
<stop stop-color="#FF541B"/>
<stop offset="1" stop-color="#FFA21B"/>
</linearGradient>
</defs>
</svg>
