<svg width="93" height="92" viewBox="0 0 93 92" fill="none" xmlns="http://www.w3.org/2000/svg">
<path d="M23.6666 7.6665C15.1982 7.6665 8.33325 14.5315 8.33325 22.9998V38.3332C8.33325 40.4503 10.0495 42.1665 12.1666 42.1665C14.2837 42.1665 15.9999 40.4503 15.9999 38.3332V22.9998C15.9999 18.7657 19.4324 15.3332 23.6666 15.3332H69.6666C73.9008 15.3332 77.3333 18.7657 77.3333 22.9998V68.9998C77.3333 73.234 73.9008 76.6665 69.6666 76.6665H54.3333C52.2162 76.6665 50.4999 78.3827 50.4999 80.4998C50.4999 82.6169 52.2162 84.3332 54.3333 84.3332H69.6666C78.1349 84.3332 84.9999 77.4682 84.9999 68.9998V22.9998C84.9999 14.5315 78.1349 7.6665 69.6666 7.6665H23.6666Z" fill="url(#paint0_linear_137_1429)"/>
<path fill-rule="evenodd" clip-rule="evenodd" d="M39.1224 34.1423C37.764 30.4712 32.5716 30.4713 31.2132 34.1423L29.0308 40.0401C27.0895 45.2864 22.9532 49.4228 17.7069 51.3641L11.8091 53.5465C8.13793 54.9049 8.138 60.0973 11.8091 61.4557L17.7069 63.6381C22.9532 65.5794 27.0895 69.7157 29.0308 74.962L31.2132 80.8598C32.5717 84.531 37.764 84.5309 39.1224 80.8598L41.3048 74.962C43.2461 69.7157 47.3825 65.5794 52.6288 63.6381L58.5266 61.4557C62.1977 60.0972 62.1976 54.9049 58.5266 53.5465L52.6288 51.3641C47.3825 49.4228 43.2461 45.2864 41.3048 40.0401L39.1224 34.1423ZM22.8292 57.5011C28.2006 54.8786 32.5454 50.5339 35.1678 45.1624C37.7903 50.5339 42.135 54.8786 47.5065 57.5011C42.135 60.1235 37.7903 64.4683 35.1678 69.8397C32.5454 64.4683 28.2006 60.1235 22.8292 57.5011Z" fill="url(#paint1_linear_137_1429)"/>
<defs>
<linearGradient id="paint0_linear_137_1429" x1="46.6666" y1="7.6665" x2="46.6666" y2="84.3332" gradientUnits="userSpaceOnUse">
<stop stop-color="#FF541B"/>
<stop offset="1" stop-color="#FFA21B"/>
</linearGradient>
<linearGradient id="paint1_linear_137_1429" x1="46.6666" y1="7.6665" x2="46.6666" y2="84.3332" gradientUnits="userSpaceOnUse">
<stop stop-color="#FF541B"/>
<stop offset="1" stop-color="#FFA21B"/>
</linearGradient>
</defs>
</svg>
