<svg width="93" height="92" viewBox="0 0 93 92" fill="none" xmlns="http://www.w3.org/2000/svg">
<path fill-rule="evenodd" clip-rule="evenodd" d="M46.3333 7.6665C48.4504 7.6665 50.1667 9.38275 50.1667 11.4998V15.7661L56.6222 13.6143C58.6306 12.9448 60.8015 14.0302 61.471 16.0387C62.1405 18.0471 61.055 20.218 59.0466 20.8875L50.1667 23.8475V31.1496C51.5736 31.5117 52.9023 32.0685 54.1225 32.7895L58.9561 27.9559C60.4531 26.4589 62.8802 26.4589 64.3772 27.9559C65.8743 29.4529 65.8743 31.8801 64.3772 33.3771L59.5437 38.2106C60.2647 39.4308 60.8215 40.7596 61.1836 42.1665H68.4864L71.4457 33.2887C72.1152 31.2802 74.286 30.1948 76.2945 30.8643C78.3029 31.5337 79.3884 33.7046 78.7189 35.7131L76.5678 42.1665H80.8333C82.9504 42.1665 84.6667 43.8827 84.6667 45.9998C84.6667 48.1169 82.9504 49.8332 80.8333 49.8332H76.5671L78.7189 56.2887C79.3884 58.2971 78.3029 60.468 76.2945 61.1375C74.286 61.807 72.1152 60.7215 71.4457 58.7131L68.4857 49.8332H61.1836C60.8215 51.2401 60.2647 52.5688 59.5437 53.789L64.3772 58.6226C65.8743 60.1196 65.8743 62.5467 64.3772 64.0437C62.8802 65.5408 60.4531 65.5408 58.9561 64.0437L54.1225 59.2102C52.9023 59.9312 51.5736 60.488 50.1667 60.8501V70.0714L59.0466 73.0313C61.055 73.7008 62.1405 75.8717 61.471 77.8802C60.8015 79.8886 58.6306 80.9741 56.6222 80.3046L50.1667 78.1527V80.4998C50.1667 82.6169 48.4504 84.3332 46.3333 84.3332C44.2162 84.3332 42.5 82.6169 42.5 80.4998V78.1534L36.0466 80.3046C34.0381 80.9741 31.8672 79.8886 31.1978 77.8802C30.5283 75.8717 31.6137 73.7008 33.6222 73.0313L42.5 70.0721V60.8501C41.0931 60.488 39.7643 59.9312 38.5441 59.2102L33.7106 64.0437C32.2136 65.5408 29.7864 65.5408 28.2894 64.0437C26.7924 62.5467 26.7924 60.1196 28.2894 58.6226L33.123 53.789C32.402 52.5688 31.8452 51.2401 31.4831 49.8332H22.2618L19.3018 58.7131C18.6323 60.7215 16.4614 61.807 14.453 61.1375C12.4445 60.468 11.3591 58.2971 12.0286 56.2887L14.1804 49.8332H11.8333C9.71624 49.8332 8 48.1169 8 45.9998C8 43.8827 9.71624 42.1665 11.8333 42.1665H14.1797L12.0286 35.7131C11.3591 33.7046 12.4445 31.5337 14.453 30.8643C16.4614 30.1948 18.6323 31.2802 19.3018 33.2887L22.2611 42.1665H31.4831C31.8452 40.7596 32.402 39.4308 33.123 38.2106L28.2894 33.3771C26.7924 31.8801 26.7924 29.4529 28.2894 27.9559C29.7864 26.4589 32.2136 26.4589 33.7106 27.9559L38.5441 32.7895C39.7643 32.0685 41.0931 31.5117 42.5 31.1496V23.8468L33.6222 20.8875C31.6137 20.218 30.5283 18.0471 31.1978 16.0387C31.8672 14.0302 34.0381 12.9448 36.0466 13.6143L42.5 15.7654V11.4998C42.5 9.38275 44.2162 7.6665 46.3333 7.6665ZM38.6667 45.9998C38.6667 50.234 42.0992 53.6665 46.3333 53.6665C50.5675 53.6665 54 50.234 54 45.9998C54 41.7657 50.5675 38.3332 46.3333 38.3332C42.0992 38.3332 38.6667 41.7657 38.6667 45.9998Z" fill="url(#paint0_linear_137_1438)"/>
<defs>
<linearGradient id="paint0_linear_137_1438" x1="46.3333" y1="7.6665" x2="46.3333" y2="84.3332" gradientUnits="userSpaceOnUse">
<stop stop-color="#FF541B"/>
<stop offset="1" stop-color="#FFA21B"/>
</linearGradient>
</defs>
</svg>
